<svg xmlns="http://www.w3.org/2000/svg" viewBox="0 0 376.1 228.18"><defs><style>.cls-1{fill:#69668a;}.cls-2{fill:#565772;opacity:0.3;}.cls-19,.cls-2,.cls-6{isolation:isolate;}.cls-20,.cls-3{fill:#f2f2f2;}.cls-4{fill:#302f42;}.cls-5{fill:#f6b7ba;}.cls-19,.cls-6{fill:#010101;}.cls-6{opacity:0.1;}.cls-7{fill:#d0cde1;}.cls-8{fill:#a1626a;}.cls-9{fill:#625f80;}.cls-10{fill:#585b8a;}.cls-11{fill:#f7d383;}.cls-12{fill:#58b994;}.cls-13{fill:#f7bfc7;}.cls-14{fill:#42425c;}.cls-15{fill:#494966;}.cls-16{fill:#cccfdb;}.cls-17{fill:#d2b571;}.cls-18{fill:#a8a8a8;}.cls-19{opacity:0.2;}.cls-20{opacity:0.5;}</style></defs><g id="Capa_2" data-name="Capa 2"><g id="Capa_1-2" data-name="Capa 1"><ellipse class="cls-1" cx="239.19" cy="215.86" rx="136.91" ry="12.32"/><rect class="cls-2" x="172.27" width="148.61" height="100.65"/><rect class="cls-3" x="267.39" y="9.22" width="44" height="47.96"/><rect class="cls-3" x="197.82" y="9.22" width="42.42" height="2.9"/><rect class="cls-3" x="267.39" y="64.56" width="15.02" height="2.9"/><rect class="cls-3" x="267.91" y="69.83" width="42.95" height="2.9"/><rect class="cls-3" x="189.13" y="19.76" width="61.13" height="2.9"/><rect class="cls-3" x="189.13" y="27.93" width="61.13" height="2.9"/><rect class="cls-3" x="189.13" y="36.1" width="61.13" height="2.9"/><rect class="cls-3" x="189.13" y="44.27" width="61.13" height="2.9"/><rect class="cls-3" x="189.13" y="52.43" width="61.13" height="2.9"/><rect class="cls-3" x="189.13" y="60.6" width="61.13" height="2.9"/><rect class="cls-3" x="189.13" y="68.77" width="61.13" height="2.9"/><path class="cls-4" d="M274,36.61a7.53,7.53,0,0,1,2.14-1.07,54,54,0,0,1,15-3.27c4.46-.32,9.3.06,12.79,2.86a4.4,4.4,0,0,1,1.29,1.52,5.53,5.53,0,0,1,.17,3.08,3.37,3.37,0,0,1-.3,1.16A2.61,2.61,0,0,1,302.46,42c-1-.1-1.94-.53-2.93-.72a12.89,12.89,0,0,0-1.86-.19l-6.2-.34a45.15,45.15,0,0,0-11.56.37,11.41,11.41,0,0,0-3.34,1.15c-.86.48-1.45,1.18-2.25.28C272.91,41,272.13,38.06,274,36.61Z"/><path class="cls-3" d="M283.61,39.35s8.35-3.74,11.52.58-1.73,2.59-1.73,2.59l-5.47,1.72-6-1.15Z"/><path class="cls-5" d="M284,36.62s1.16,5.47.29,6.9,4.9,3.46,4.9,3.46l5.47-2.3s-1.44-8.93,0-10.66Z"/><path class="cls-6" d="M284,36.62s1.16,5.47.29,6.9,4.9,3.46,4.9,3.46l5.47-2.3s-1.44-8.93,0-10.66Z"/><path class="cls-5" d="M297.29,31.15a8.65,8.65,0,0,1-8.64,8.63,7.85,7.85,0,0,1-1.53-.14,8.63,8.63,0,1,1,10.17-8.49Z"/><path class="cls-3" d="M302.5,57.44H275l.62-2.71L278.29,43l3.12-2.11h0l1.47-1,.73-.49s.43.2.93.47l.44.25h0a5.46,5.46,0,0,1,.68.47,1.14,1.14,0,0,1,.11.11c.55.54,2.15,3.45,4.8,2a3,3,0,0,0,.38-.24,19.84,19.84,0,0,0,2-1.56c.56-.51.92-.9,1.21-1.17a2.42,2.42,0,0,1,.45-.34.93.93,0,0,1,.4-.09c.87,0,2,1.72,2,1.72l0,.1h0L300.67,52Z"/><path class="cls-4" d="M275,57.44h8.35a23.32,23.32,0,0,0-.15-2.89c-.26-1.92-.89-3.78-1.28-5.68a23.38,23.38,0,0,1-.5-5.07c0-.23,0-.47,0-.71a3.25,3.25,0,0,1,.46-1.54c.2-.3.47-.56.68-.85a1.53,1.53,0,0,0,.19-.3h0l.07-.16a1.1,1.1,0,0,0,.08-.4,2.39,2.39,0,0,0-1.59-2.06,6,6,0,0,0-3.73-.15,17.75,17.75,0,0,0-3.5,1.43c-.38.18-.75.37-1.11.58a5.5,5.5,0,0,0-1.18.9A7.47,7.47,0,0,0,270.16,44a7.37,7.37,0,0,0-.3,3,.36.36,0,0,0,0,.1c.31,1.64,1.65,2.87,2.36,4.39a9.65,9.65,0,0,1,.45,5.71l-.06.29Z"/><path class="cls-4" d="M308.94,46.9a65.33,65.33,0,0,0-2.28,10.54H294.77q-.48-1.27-.93-2.55a18.7,18.7,0,0,1-.64-2,9.34,9.34,0,0,1-.27-2.36,5.44,5.44,0,0,1,0-.57h0a9.22,9.22,0,0,1,.69-2.92,10,10,0,0,1,.6-1.23c.56-1,1.22-1.94,1.82-2.92A14.52,14.52,0,0,0,297,41h0a6.57,6.57,0,0,0,.54-2.62c0-1.16-2-3.19.16-3,2.91.26,5.42,1.94,7.7,3.85.61.51,1.21,1,1.79,1.57a6,6,0,0,1,2.13,2.88,3.55,3.55,0,0,1,.07.57A7.79,7.79,0,0,1,308.94,46.9Z"/><path class="cls-5" d="M291.1,43.72a6.49,6.49,0,0,0-1.35-2.18,5,5,0,0,0-2.06-1,11.5,11.5,0,0,0-3-.44c-1.22,0-2.63.32-3.15,1.43a3.38,3.38,0,0,0,.32,2.79,2.71,2.71,0,0,0,.86,1.15,4.79,4.79,0,0,0,1.82.46,8.42,8.42,0,0,1,2.71,1.23l2.13,1.29L293,50.63c-.1-.06-.06-2.58-.17-3A29.13,29.13,0,0,0,291.1,43.72Z"/><path class="cls-4" d="M297.07,26.65a2.2,2.2,0,0,0-.95-1.25,5.28,5.28,0,0,0-.2-1.63c-.52-1.55-1.76-1.46-2.93-2.14-.51-.3-.48-.56-.74-1.05a3.94,3.94,0,0,0-1.5-1.53,5.45,5.45,0,0,0-2.43-1c-1.86-.12-3.29,1.63-5.07,2.19-.79.25-1.63.26-2.42.5a2.22,2.22,0,0,0-1.7,1.6c-.05.38,0,.77,0,1.14-.11.75-.77,1.28-1.21,1.89a4.64,4.64,0,0,0-.08,4.76,6.23,6.23,0,0,0,.56.88,5.38,5.38,0,0,0,.59,2,10,10,0,0,0,3.51,3.51,9.34,9.34,0,0,1-.21-1.5,1,1,0,0,1,.07-.49c.15-.33.56-.41.88-.59a2.23,2.23,0,0,0,.92-1.93c0-.75-.14-1.5-.06-2.24a1.22,1.22,0,0,1,.42-.9,1.53,1.53,0,0,1,.78-.19,8.87,8.87,0,0,0,3.9-.7,5.75,5.75,0,0,1,1.21-.62,2.58,2.58,0,0,1,2.59,1.3c.57.85.86,1.87,1.39,2.75A2.79,2.79,0,0,0,296.85,33a.39.39,0,0,0,.3-.14.4.4,0,0,0,.06-.26l.06-3.91A6.05,6.05,0,0,0,297.07,26.65Z"/><path class="cls-4" d="M274.29,52.8c.19,1.54.3,3.09.34,4.64h-7.24V51.35a3.6,3.6,0,0,1,.12-.44,15.6,15.6,0,0,1,2.23-3.78l.12-.18a10.27,10.27,0,0,0,.9-1.62c.12-.28.31-1.64.51-1.75.86-.5,1.56,1.63,1.68,2.1.42,1.69.78,3.4,1.06,5.12C274.12,51.47,274.21,52.13,274.29,52.8Z"/><path class="cls-4" d="M310.91,57.44H294.28c-.15-.33-.29-.67-.43-1a29.15,29.15,0,0,0-4-6.54,1.78,1.78,0,0,1-.5-1,1,1,0,0,1,.11-.44,2.87,2.87,0,0,1,1.47-1,5.15,5.15,0,0,0,1.52-1,3.3,3.3,0,0,0,.88-1.3,2.46,2.46,0,0,0,.11-.45l.23.3.57.74A22.31,22.31,0,0,0,300.67,52a10.77,10.77,0,0,0,2.1.89.49.49,0,0,0,.44,0,.49.49,0,0,0,.19-.35c.23-1,.31-1.93.47-2.89a16.7,16.7,0,0,1,1.74-5c.47-.88,2-4.08,3-2.06l.84,1.75L310,45.4a6.91,6.91,0,0,1,.86,3.88Q310.88,53.36,310.91,57.44Z"/><path class="cls-6" d="M275,57.44h1.44l-.82-2.71-1.17-3.91a13.47,13.47,0,0,1-1.27,5.89c-.11.24-.23.48-.33.73Z"/><path class="cls-6" d="M304.32,49.11a2.74,2.74,0,0,0,.14,1.71,17.23,17.23,0,0,1,.62,5A.19.19,0,0,1,305,56h-.08a2.32,2.32,0,0,1-1.88-.45Z"/><rect class="cls-2" y="1.04" width="148.61" height="100.65"/><rect class="cls-3" x="9.49" y="10.26" width="44" height="47.96"/><rect class="cls-3" x="80.63" y="10.26" width="42.42" height="2.9"/><rect class="cls-3" x="10.01" y="65.59" width="15.02" height="2.9"/><rect class="cls-3" x="10.01" y="70.86" width="42.95" height="2.9"/><rect class="cls-3" x="70.62" y="20.8" width="61.13" height="2.9"/><rect class="cls-3" x="70.62" y="28.97" width="61.13" height="2.9"/><rect class="cls-3" x="70.62" y="37.13" width="61.13" height="2.9"/><rect class="cls-3" x="70.62" y="45.3" width="61.13" height="2.9"/><rect class="cls-3" x="70.62" y="53.47" width="61.13" height="2.9"/><rect class="cls-3" x="70.62" y="61.64" width="61.13" height="2.9"/><rect class="cls-3" x="70.62" y="69.81" width="61.13" height="2.9"/><path class="cls-7" d="M52.29,58.48H46.57c-.44-1.19-.83-2.38-1.17-3.6a7.23,7.23,0,0,0-1.87-3.8,7.1,7.1,0,0,1-.8-1.09,5.15,5.15,0,0,1-.51-3.11c0-.29.09-.59.15-.88.25-1.12.67-2.2,1-3.3a1.25,1.25,0,0,1,1-.84,2,2,0,0,1,1.12.13l.23.11A3.49,3.49,0,0,1,47,44q1.8,4.8,3.58,9.61l.7,1.87c.34.92.68,1.84,1,2.77C52.24,58.3,52.27,58.38,52.29,58.48Z"/><path class="cls-4" d="M28.48,16.31a4.37,4.37,0,0,0-3,3.07c-.14.68-.06,1.39-.17,2.08-.26,1.59-1.51,2.81-2.67,3.94s-2.34,2.44-2.42,4.05c-.09,1.77,1.18,3.42,1,5.17-.25,2-2.41,3.36-2.94,5.34a5.14,5.14,0,0,0,.8,3.92,11.2,11.2,0,0,0,6.18,4.55,25.22,25.22,0,0,0,7.74,1c3.18,0,6.63-.24,9-2.34a7.17,7.17,0,0,0,2.4-4.7c.23-2.43-.78-4.95-.08-7.29.44-1.47,1.54-2.81,1.38-4.34S44.21,28.21,43.32,27a15,15,0,0,1-1.84-3.77l-1.71-4.49a5.17,5.17,0,0,0-1.44-2.39c-1.4-1.09-3.64-.87-5.27-.65A24.14,24.14,0,0,0,28.48,16.31Z"/><path class="cls-8" d="M29.79,31.1s.17,5-.33,5.5,2,3.83,2,3.83L36,40.26l2.34-1.83-2-2.67s-.84-4.32-.17-5.32S29.79,31.1,29.79,31.1Z"/><path class="cls-6" d="M29.79,31.1s.17,5-.33,5.5,2,3.83,2,3.83L36,40.26l2.34-1.83-2-2.67s-.84-4.32-.17-5.32S29.79,31.1,29.79,31.1Z"/><circle class="cls-8" cx="32.54" cy="27.02" r="5.99"/><path class="cls-7" d="M35.61,58.48h4.86c.18-.33.36-.67.55-1h0a2.82,2.82,0,0,1,.89-.93,2.88,2.88,0,0,0,.65-.39,1.57,1.57,0,0,0,.4-.75,11.4,11.4,0,0,0,.55-3.23c0-.37,0-.74,0-1.11a5.06,5.06,0,0,1,.11-.86,6.73,6.73,0,0,1,.72-1.62c.66-1.2,1.32-2.4,2-3.6a2.69,2.69,0,0,0,.13-1,2.54,2.54,0,0,0-.43-1.36l-.29-.49a10.71,10.71,0,0,0-1.42-1.8,11.37,11.37,0,0,0-4-2.72,2.73,2.73,0,0,1-.54-.27,2,2,0,0,1-.49-.59c-.53-.79-1.17-1.69-2.12-1.64a1.31,1.31,0,0,0-1-.06l-.15,0a10.64,10.64,0,0,0-1.06.55,4.82,4.82,0,0,1-2.84.52,1.14,1.14,0,0,1-.33-.08,1.89,1.89,0,0,1-.31-.25,1.76,1.76,0,0,0-1.75-.28A1.62,1.62,0,0,0,29,36c-.18.22-.3.48-.49.69a2.73,2.73,0,0,1-2.05.55,18.78,18.78,0,0,0-4.49.41,8.75,8.75,0,0,0-3.55,1.71h0l-.4.37a3.12,3.12,0,0,0-.7,1c-.2.52-.18,1.1-.36,1.63s-.65,1.06-.82,1.66a6.6,6.6,0,0,1-.35,1.34l0,0c1,.84,1.78,2,2.74,2.78A5.59,5.59,0,0,1,20,49.75a1.94,1.94,0,0,1,.17.42,6.06,6.06,0,0,1,.14,1.53,12.41,12.41,0,0,0,3,6.66l.08.12Z"/><path class="cls-7" d="M20,49.75c-.23,1.57-.45,3.14-.68,4.71a23,23,0,0,1-.47,2.5c-.14.51-.32,1-.44,1.52H11.53a6,6,0,0,1,.06-.85,14.36,14.36,0,0,1,.86-3q1.2-3.22,2.39-6.47c.34-.92.63-1.88,1-2.79.06-.17.14-.34.21-.5.4-.88,1.5-.52,2.32-.39a2.11,2.11,0,0,1,.65.19,1.59,1.59,0,0,1,.61.57c.77,1.15.6,2.66.4,4Z"/><path class="cls-4" d="M41,57.49s.13.43.31,1H35.61c2.84-.49,5.41-1,5.41-1Z"/><ellipse class="cls-4" cx="33.04" cy="23.53" rx="6.49" ry="3.5"/><rect class="cls-9" x="95.2" y="38.09" width="148.61" height="100.65"/><ellipse class="cls-6" cx="222.2" cy="130.05" rx="17.39" ry="1.84"/><rect class="cls-3" x="104.69" y="47.31" width="44" height="47.96"/><path class="cls-4" d="M118.86,69.33a.64.64,0,0,0,.75-.31c.61-1-.51-2.2-.27-3.31.2-.89,1.21-1.41,1.42-2.3s-.42-1.83,0-2.61a1.72,1.72,0,0,1,1.83-.66c.68.1,1.33.4,2,.44a9.47,9.47,0,0,0,2.7-.55,2.41,2.41,0,0,1,2.53.64c.68,1,0,2.32.23,3.48.19.92,1,1.69,1,2.63,0,.33-.87.06-.82.39s-.37,0,0,0a.65.65,0,0,0,.5-.59c0-.28.56-.37.55-.65,0-.65,1.17-.21,1.36-.83a6.32,6.32,0,0,0-.25-4.41,8.92,8.92,0,0,1-.76-1.8,20.87,20.87,0,0,0-.18-2.63,3.2,3.2,0,0,0-2.85-1.81c-1.18-.12-2.39.09-3.56-.08a15,15,0,0,0-3.14-.55,5.22,5.22,0,0,0-3.28,1.83,26.59,26.59,0,0,1-2.64,2.77,5.3,5.3,0,0,0-.84.73,2.79,2.79,0,0,0-.42,2.31c.14.79.45,1.55.58,2.35s.08,1.51.14,2.27a4,4,0,0,0,.66,2.14,2,2,0,0,0,1.57.82c.22,0,.4-.19.61-.14S118.62,69.22,118.86,69.33Z"/><path class="cls-10" d="M109.18,95.53c.19-2.64.34-4.61.34-4.61l1.24-3.28,4,7.89Z"/><path class="cls-6" d="M109.18,95.53c.19-2.64.34-4.61.34-4.61l1.24-3.28,4,7.89Z"/><path class="cls-8" d="M118.43,69.6s3.72,9.47,1.58,11.28,12-3,12-3l-.34-1.24s-4.63-1.8-2.37-7S118.43,69.6,118.43,69.6Z"/><path class="cls-6" d="M118.43,69.6s3.72,9.47,1.58,11.28,12-3,12-3l-.34-1.24s-4.63-1.8-2.37-7S118.43,69.6,118.43,69.6Z"/><circle class="cls-8" cx="123.73" cy="65.54" r="7.9"/><path class="cls-10" d="M142.91,82.57s0,.63-.09,1.72c-.11,2.24-.32,6.42-.52,11.24H111.69a15,15,0,0,1-1.94-3.48,3.67,3.67,0,0,1-.23-1.13c-.17-3,2.51-7.16,4.4-7.56,2.14-.45,6.2-4.74,6.2-4.74a1,1,0,0,0,.52.78h0a2.28,2.28,0,0,0,1.06.23c1.32,0,7.14-2.69,9-3.56l.58-.28A43.16,43.16,0,0,0,138,78.06,7.08,7.08,0,0,1,142.91,82.57Z"/><path class="cls-4" d="M117.5,68.54a.65.65,0,0,0,.76-.31c.61-1-.51-2.2-.27-3.31.2-.89,1.21-1.41,1.41-2.3s-.42-1.83,0-2.61a1.73,1.73,0,0,1,1.83-.66c.69.1,1.34.4,2,.45a10.21,10.21,0,0,0,2.7-.55,2.39,2.39,0,0,1,2.53.63c.68,1,0,2.32.22,3.48.19.92,2.34,1.57,2.53,1A6.27,6.27,0,0,0,131,59.9a8.89,8.89,0,0,1-.75-1.8,19.16,19.16,0,0,0-.19-2.63,3.19,3.19,0,0,0-2.84-1.81c-1.19-.12-2.39.09-3.57-.08a14.77,14.77,0,0,0-3.14-.55,5.22,5.22,0,0,0-3.27,1.83,27.68,27.68,0,0,1-2.64,2.77,6,6,0,0,0-.85.73,2.87,2.87,0,0,0-.42,2.31c.14.79.45,1.55.58,2.35a21.44,21.44,0,0,1,.14,2.27,4.09,4.09,0,0,0,.67,2.14,2,2,0,0,0,1.57.82c.21,0,.39-.19.61-.14S117.26,68.43,117.5,68.54Z"/><path class="cls-6" d="M146.82,95.53h-8.93c-.68-5-1.24-10.2-1.24-10.2l1.8-.79,3.67-2s.27.64.7,1.72C143.74,86.61,145.42,91,146.82,95.53Z"/><path class="cls-10" d="M147.61,95.53H137.53c-1.5-5.45-3-11.38-3-11.38l3.84-2.82,4.51,1.24S145.55,88.85,147.61,95.53Z"/><rect class="cls-11" x="175.83" y="47.31" width="42.42" height="2.9"/><rect class="cls-11" x="105.21" y="102.65" width="15.02" height="2.9"/><rect class="cls-11" x="105.21" y="107.92" width="42.95" height="2.9"/><rect class="cls-3" x="165.82" y="57.85" width="61.13" height="2.9"/><rect class="cls-3" x="165.82" y="66.02" width="61.13" height="2.9"/><rect class="cls-3" x="165.82" y="74.19" width="61.13" height="2.9"/><rect class="cls-3" x="165.82" y="82.36" width="61.13" height="2.9"/><rect class="cls-3" x="165.82" y="90.52" width="61.13" height="2.9"/><rect class="cls-3" x="165.82" y="98.69" width="61.13" height="2.9"/><rect class="cls-3" x="165.82" y="106.86" width="61.13" height="2.9"/><path class="cls-12" d="M238.73,107.25,222,124l-7-7a2.4,2.4,0,0,0-3.4,0l-.25-.38a2.9,2.9,0,0,0,.25,3.78l9.11,9.11a1.84,1.84,0,0,0,2.59,0l18.82-18.8c.94-.94,1.28-2.66.34-3.6h0A2.85,2.85,0,0,0,238.73,107.25Z"/><path class="cls-6" d="M238.73,107.25,222,124l-7-7a2.4,2.4,0,0,0-3.4,0l-.25-.38a2.9,2.9,0,0,0,.25,3.78l9.11,9.11a1.84,1.84,0,0,0,2.59,0l18.82-18.8c.94-.94,1.28-2.66.34-3.6h0A2.85,2.85,0,0,0,238.73,107.25Z"/><path class="cls-12" d="M238.73,106.51,222,123.22l-7-7a2.4,2.4,0,0,0-3.4,0h0a2.39,2.39,0,0,0,0,3.39h0l9.11,9.12a1.84,1.84,0,0,0,2.59,0l18.82-18.8a2.41,2.41,0,0,0,0-3.4h0A2.39,2.39,0,0,0,238.73,106.51Z"/><path class="cls-6" d="M361.67,203.3c0,18.84-26.26,13-58.42,13s-58,5.83-58-13,26.26-22.94,58.42-22.94S361.67,184.46,361.67,203.3Z"/><path class="cls-11" d="M361.67,199.78c0,18.84-26.26,13-58.42,13s-58,5.83-58-13,26.26-22.94,58.42-22.94S361.67,180.94,361.67,199.78Z"/><path class="cls-13" d="M251.88,140.75l-1.19,1.38s-14.47,1.36-13.88,3.71,17.42-3.13,17.42-3.13Z"/><path class="cls-11" d="M278.11,139.58s-15.46,5.48-23.88,3.13l3.92,7.83s20-.59,23.49-4.11S278.11,139.58,278.11,139.58Z"/><path class="cls-6" d="M278.11,139.58s-15.46,5.48-23.88,3.13l3.92,7.83s20-.59,23.49-4.11S278.11,139.58,278.11,139.58Z"/><circle class="cls-13" cx="267.64" cy="87.22" r="10.37"/><path class="cls-13" d="M276.49,97a7.93,7.93,0,0,0,1.34,1.86,17,17,0,0,0,5,3.74A169.74,169.74,0,0,1,265,105.21c.64-2.22-.2-4.6-1.31-6.63s-2.54-3.91-3.24-6.11l7,.19c1.27,0,2.55.07,3.82,0,.95,0,2.53-.62,3.42-.41C276.59,92.7,275.67,95.29,276.49,97Z"/><path class="cls-14" d="M300,145.65l5.87,7s9.79,22.91-11.55,25.25-37.19-1.76-37.19-1.76-8.61-4.11-8.81-1a50.55,50.55,0,0,1-5.68,20.56l-4.11,9.39a6.08,6.08,0,0,0-1.56,5.09c.58,2.94-13.12,3.92-12.92,0,0,0,1.95-3.32,1.95-5.28s3.14-6.66,3.14-6.66l5.67-28.19s-.39-14.48,12.92-11.74,32.3-.59,32.3-.59l4.31-15.07Z"/><path class="cls-15" d="M278,145.13s17.91-6.73,27.89,7.56c0,0,2.54,22.12-7.64,23.1s-23.48.78-26.62-2.54-22.9-12.73-22.9-12.73-9.84-5-11.77,1.51a71.63,71.63,0,0,0-2.13,8.08s-10.18,7.44-14.29,8.81c0,0-2.74,3.92-4.3,3.92s-11.16,2.15-10.18-5.09l15.85-14.49,15.86-15.46s4.5-6.66,16.05-3.13a239.42,239.42,0,0,0,23.29,5.67Z"/><path class="cls-16" d="M236.42,209.85s3.72,9.4.59,10.57-9.79.39-9.79.39-7.83-1-9.79-.78-10-1.37-8.81-4.5,7.25-2.35,7.25-2.35l5.48-2.55s.58-1.95,2-1.17S228.59,213.18,236.42,209.85Z"/><path class="cls-16" d="M216.06,182.06s4.11,9.2-2.54,8.41-11.75-2.15-13.71-2.35-7.2-2-6.39-5.63a2.8,2.8,0,0,0,.06-.71c0-.48.66-1.44,5.94-1.29,0,0,3.92,0,5.48-2.74C204.9,177.75,210.78,185.19,216.06,182.06Z"/><path class="cls-11" d="M260.5,103.76s14.09-8.81,25.83,0,19.58,48.93,19.58,48.93l-27.21-6.06s-1.17-4.7-2.74-5.49S274.2,137,274.2,137a11.78,11.78,0,0,1-7.83-12.33C267,114.91,260.5,103.76,260.5,103.76Z"/><path class="cls-11" d="M267.74,104.15H260.5s-4.31,4.89-4.9,17.22l-2.35,9.79s-4.89,11.75-1.95,13.7,8.61,1.77,9.78-2.15,9.2-26.62,9.2-26.62Z"/><path class="cls-4" d="M265.66,73.71a10.5,10.5,0,0,1,10.85,1.78c3.76,3.36,4.52,8.83,5.47,13.78s2.86,10.46,7.52,12.37a19.65,19.65,0,0,1-6.31-.19l7,6.32-11.87-3.87c-3.72-1.22-7.64-2.45-11.5-1.76-6.39,1.14-10.84,7.14-17,9.26l.69-3.33-4.12,0a8.16,8.16,0,0,0,2.36-2.76,2.28,2.28,0,0,0-1.58-.82c-1.72-10.71,4.64-21.3,12.93-28.3a12,12,0,0,1,5.54-3c2.11-.34,4.56.6,5.3,2.6"/><path class="cls-17" d="M86.05,171.87c0,22.53,14.14,40.76,31.6,40.76"/><path class="cls-11" d="M117.65,212.63c0-22.79,15.78-41.22,35.27-41.22"/><path class="cls-11" d="M97.5,173.91c0,21.4,9,38.72,20.15,38.72"/><path class="cls-17" d="M117.65,212.63c0-29.11,18.24-52.67,40.77-52.67"/><path class="cls-18" d="M111,212.92s4.49-.14,5.84-1.1,6.89-2.11,7.23-.57,6.73,7.67,1.67,7.71-11.76-.79-13.1-1.61S111,212.92,111,212.92Z"/><path class="cls-19" d="M125.83,218.42c-5.06.05-11.75-.78-13.1-1.61-1-.62-1.44-2.86-1.58-3.9H111s.29,3.61,1.64,4.43,8,1.65,13.1,1.61c1.46,0,2-.53,1.94-1.3C127.48,218.13,126.92,218.42,125.83,218.42Z"/><rect class="cls-20" x="267.42" y="9.22" width="44" height="48.22"/><rect class="cls-20" x="9.49" y="10.26" width="44" height="47.96"/></g></g></svg>