<svg xmlns="http://www.w3.org/2000/svg" xmlns:xlink="http://www.w3.org/1999/xlink" viewBox="0 0 355.92 229.92"><defs><style>.cls-1{opacity:0.2;}.cls-2{fill:#403e56;}.cls-3{fill:#f7d383;}.cls-16,.cls-4{fill:#010101;}.cls-15,.cls-4{opacity:0.1;}.cls-10,.cls-11,.cls-4,.cls-9{isolation:isolate;}.cls-5{fill:url(#Degradado_sin_nombre_2);}.cls-6{fill:#fff;}.cls-7{fill:#d7d9e1;}.cls-8{fill:#ededf4;}.cls-9{fill:#eb5b5c;}.cls-10,.cls-11,.cls-9{opacity:0.8;}.cls-10{fill:#ffd354;}.cls-11{fill:#8ec151;}.cls-12{fill:url(#Degradado_sin_nombre_2-2);}.cls-13{fill:url(#Degradado_sin_nombre_2-3);}.cls-14{fill:#f7bebe;}.cls-17{fill:#66627d;}.cls-18{fill:url(#Degradado_sin_nombre_2-4);}.cls-19{opacity:0.05;}.cls-20{fill:#f9ccd2;}.cls-21{fill:#dce6f1;}.cls-22{fill:#2e293e;}.cls-23{fill:#625f80;}.cls-24{fill:url(#Degradado_sin_nombre_2-5);}.cls-25{fill:#a2626b;}</style><linearGradient id="Degradado_sin_nombre_2" x1="190.61" y1="5129.81" x2="190.61" y2="5318.57" gradientTransform="matrix(1, 0, 0, -1, -16.24, 5353.22)" gradientUnits="userSpaceOnUse"><stop offset="0" stop-color="#808181" stop-opacity="0.25"/><stop offset="0.54" stop-color="#808181" stop-opacity="0.12"/><stop offset="1" stop-color="#808181" stop-opacity="0.1"/></linearGradient><linearGradient id="Degradado_sin_nombre_2-2" x1="883.73" y1="-807.36" x2="883.73" y2="-805.53" gradientTransform="matrix(0, 1, 1, 0, 997.28, -853.04)" xlink:href="#Degradado_sin_nombre_2"/><linearGradient id="Degradado_sin_nombre_2-3" x1="314.88" y1="5124.72" x2="314.88" y2="5185.75" xlink:href="#Degradado_sin_nombre_2"/><linearGradient id="Degradado_sin_nombre_2-4" x1="5773.62" y1="5124.1" x2="5773.62" y2="5191.43" gradientTransform="translate(5954.54 5353.22) rotate(180)" xlink:href="#Degradado_sin_nombre_2"/><linearGradient id="Degradado_sin_nombre_2-5" x1="4979" y1="5675.61" x2="4979" y2="5735.28" gradientTransform="matrix(-0.98, 0.22, -0.22, -0.98, 6199.63, 4690.88)" xlink:href="#Degradado_sin_nombre_2"/></defs><g id="Capa_2" data-name="Capa 2"><g id="Capa_1-2" data-name="Capa 1"><g class="cls-1"><path class="cls-2" d="M307.13,221.49a6.38,6.38,0,0,1-.53.82c-1.76-1.24-3.54-2.46-5.36-3.64l.12-.24a5.05,5.05,0,0,1,1.83-2,3,3,0,0,1,3.05-.26,3.12,3.12,0,0,1,1.51,2.67A5.23,5.23,0,0,1,307.13,221.49Z"/><ellipse class="cls-2" cx="306.7" cy="215.37" rx="4.27" ry="3.26" transform="translate(-27.18 385.58) rotate(-62.09)"/><ellipse class="cls-2" cx="309.14" cy="210.75" rx="4.27" ry="3.26" transform="translate(-21.8 385.29) rotate(-62.09)"/><ellipse class="cls-2" cx="311.59" cy="206.14" rx="4.27" ry="3.26" transform="translate(-16.42 384.99) rotate(-62.09)"/><ellipse class="cls-2" cx="314.03" cy="201.52" rx="4.27" ry="3.26" transform="translate(-11.04 384.7) rotate(-62.09)"/><path class="cls-3" d="M320,164.19a15.26,15.26,0,0,1-.24-2.13l8.23,2.77-8.23-4.27a15.68,15.68,0,0,1,5.56-11.12l8,11.53-6.2-12.83a15.64,15.64,0,1,1,16.57,26.53,14.23,14.23,0,0,1-1.93,1,15.81,15.81,0,0,1,.25,3.36l-12.55-.1,12.35,2a15.61,15.61,0,0,1-9.1,11.8,15.64,15.64,0,1,1-21.72-11.5A15.65,15.65,0,0,1,320,164.2Z"/><path class="cls-4" d="M340.1,185.81a15.49,15.49,0,0,1-7.48,7,15.64,15.64,0,1,1-21.72-11.5C310.29,178,340.93,184.25,340.1,185.81Z"/></g><g class="cls-1"><path class="cls-2" d="M297.33,129.25a9.31,9.31,0,0,1-.69,1.42q-4.61-2.46-9.33-4.78c0-.13.09-.26.14-.4a8.33,8.33,0,0,1,2.53-3.55,5,5,0,0,1,4.88-1,4.93,4.93,0,0,1,2.95,4A8.25,8.25,0,0,1,297.33,129.25Z"/><ellipse class="cls-2" cx="295.41" cy="119.48" rx="6.92" ry="5.28" transform="translate(78.65 353.05) rotate(-69.16)"/><ellipse class="cls-2" cx="298.41" cy="111.58" rx="6.92" ry="5.28" transform="translate(87.97 350.77) rotate(-69.16)"/><ellipse class="cls-2" cx="301.42" cy="103.67" rx="6.92" ry="5.28" transform="translate(97.3 348.49) rotate(-69.16)"/><ellipse class="cls-2" cx="304.43" cy="95.77" rx="6.92" ry="5.28" transform="translate(106.62 346.21) rotate(-69.16)"/><path class="cls-3" d="M306.51,34.64a26.24,26.24,0,0,1-.8-3.4L319.49,34l-14.07-5.23A25.33,25.33,0,0,1,312.1,9.9l15.11,16.91L314.71,7.44a25.31,25.31,0,0,1,31.81,39.38,24.86,24.86,0,0,1-2.81,2,25.63,25.63,0,0,1,1.05,5.34l-20.18,2.34,20.26.81a25.33,25.33,0,0,1-12.27,20.77,25.31,25.31,0,1,1-37.2-14.16A25.31,25.31,0,0,1,306.5,34.63Z"/><path class="cls-4" d="M343.2,65.35a25.23,25.23,0,0,1-10.63,12.7,25.31,25.31,0,1,1-37.21-14.16C293.74,58.67,344.21,62.7,343.2,65.35Z"/></g><g class="cls-1"><path class="cls-2" d="M54.36,155.54a11.93,11.93,0,0,0,.61,1.77q5.81-2.22,11.72-4.27a4.85,4.85,0,0,0-.11-.49A9.78,9.78,0,0,0,64.12,148a5.46,5.46,0,0,0-9.66,2.35A9.91,9.91,0,0,0,54.36,155.54Z"/><ellipse class="cls-2" cx="58.1" cy="144.28" rx="6.28" ry="8.23" transform="translate(-32.56 17.9) rotate(-13.72)"/><ellipse class="cls-2" cx="55.71" cy="134.51" rx="6.28" ry="8.23" transform="translate(-30.31 17.05) rotate(-13.72)"/><ellipse class="cls-2" cx="53.33" cy="124.74" rx="6.28" ry="8.23" transform="translate(-28.06 16.21) rotate(-13.72)"/><ellipse class="cls-2" cx="50.95" cy="114.97" rx="6.28" ry="8.23" transform="translate(-25.81 15.36) rotate(-13.72)"/><path class="cls-3" d="M57.47,42.55a28.59,28.59,0,0,0,1.46-3.9L42.25,39.93l17.38-4.11a30.12,30.12,0,0,0-5.1-23.31L34.2,30.27l17.62-21A30.11,30.11,0,0,0,8.39,51a29.55,29.55,0,0,0,3.11,2.81,30.79,30.79,0,0,0-2,6.15l23.47,5.74-24-2A30.13,30.13,0,0,0,20.33,89.94a30.1,30.1,0,1,0,46-11.22,30.1,30.1,0,0,0-8.84-36.16Z"/><path class="cls-4" d="M9.65,73.38A30,30,0,0,0,20.33,89.94a30.1,30.1,0,1,0,46-11.22C69,72.78,8.86,70.1,9.65,73.38Z"/></g><path class="cls-5" d="M322.08,34.65H26.67A2.63,2.63,0,0,0,24,37.29h0V218.08a5.32,5.32,0,0,0,5.3,5.33H319.41a5.32,5.32,0,0,0,5.3-5.33h0V37.29a2.63,2.63,0,0,0-2.63-2.64Z"/><path class="cls-6" d="M323.52,45.87V217a5.26,5.26,0,0,1-5.26,5.26H30.54A5.26,5.26,0,0,1,25.28,217h0V45.87Z"/><path class="cls-7" d="M64.59,43.8V222.28H30.54A5.26,5.26,0,0,1,25.28,217h0V43.81Z"/><path class="cls-8" d="M323.52,38.27v7.6H25.28v-7.6a2.61,2.61,0,0,1,2.61-2.61h293a2.61,2.61,0,0,1,2.61,2.61Z"/><circle class="cls-9" cx="30.01" cy="40.69" r="1.22"/><circle class="cls-10" cx="33.36" cy="40.69" r="1.22"/><circle class="cls-11" cx="36.72" cy="40.69" r="1.22"/><rect class="cls-8" x="113.39" y="60.87" width="28.66" height="3.05"/><rect class="cls-8" x="113.39" y="69.71" width="161.01" height="3.05"/><rect class="cls-8" x="113.39" y="78.56" width="161.01" height="3.05"/><rect class="cls-8" x="113.39" y="87.4" width="161.01" height="3.05"/><rect class="cls-8" x="113.39" y="96.24" width="161.01" height="3.05"/><rect class="cls-8" x="29.22" y="60.87" width="28.66" height="3.05"/><rect class="cls-8" x="29.22" y="69.71" width="28.66" height="3.05"/><rect class="cls-8" x="29.22" y="78.56" width="28.66" height="3.05"/><rect class="cls-8" x="29.22" y="87.4" width="28.66" height="3.05"/><rect class="cls-8" x="29.22" y="96.24" width="28.66" height="3.05"/><rect class="cls-12" x="189.92" y="30.07" width="1.83" height="1.22"/><path class="cls-2" d="M278.38,191.53a.57.57,0,0,0-.3-.45.58.58,0,0,0-.77.31v0l-2.81,5.9-.63,23.25h1l.38-23.2,3.09-5.46A.6.6,0,0,0,278.38,191.53Z"/><path class="cls-13" d="M321,227.75l-.05.06a.88.88,0,0,1-.35.17h0a3.35,3.35,0,0,1-.78.13h-.53l-.33,0h0a2,2,0,0,0-.48.12,4.59,4.59,0,0,1-1.05.15h-1.52c-.68,0-1.36.12-2,.13h-.22a3.15,3.15,0,0,1-1.88-.56.71.71,0,0,1-.25-.29.9.9,0,0,1,0-.37,1,1,0,0,1,.23-.63,1.16,1.16,0,0,1,.37-.18l.69-.21.75-.23h0l.14,0,.09,0a1.77,1.77,0,0,0,.31-.15,1,1,0,0,0,.3-.3s0-.05.05-.07v-.06c0-.16,0-.31-.07-.48a1.78,1.78,0,0,1-.93-.53,2.8,2.8,0,0,1-.55-.73,15.77,15.77,0,0,1-.71-1.88,17,17,0,0,0-1.41-2.71c-.49-.81-1-1.62-1.53-2.38-.36-.5-.76-1-1.12-1.5a13.2,13.2,0,0,1-2.16-4.71,6.17,6.17,0,0,0-.26-1,10,10,0,0,0-.91-1.45,4.78,4.78,0,0,1-.67-1.71c-.06-.35-.17-.72-.52-.76h0l0,.08a16.77,16.77,0,0,1-2.53,3.94,4,4,0,0,0-.47.54,4.63,4.63,0,0,0-.31.58,3.87,3.87,0,0,1-.67,1,1.86,1.86,0,0,1-.26.23,1.65,1.65,0,0,1-.42.21h0l-.18,0v.09a6.12,6.12,0,0,1-.23,3,.19.19,0,0,1,0,.08c-.06.15-.11.29-.17.42-.16.34-.34.66-.49,1,0,.06-.05.12-.07.17a13.84,13.84,0,0,0-.44,4.32,6,6,0,0,1-.11.95c-.09.35-.23.71-.31,1.07a1.94,1.94,0,0,0,0,.83h0l-.41.14v0c.05.28.1.57.14.85a1.2,1.2,0,0,0,.27.67l.12.14c.1.15,0,.36,0,.55s.27.48.23.74a.47.47,0,0,1-.3.35l-.2.07h0l-.23,0a10.65,10.65,0,0,1-2.82,0c-.19,0-.37-.07-.56-.09a4.22,4.22,0,0,0-.71,0,34.74,34.74,0,0,1-5.2.11,1.49,1.49,0,0,1-1.22-.49,1.4,1.4,0,0,1,0-1.1,1.14,1.14,0,0,1,.16-.38.08.08,0,0,1,0,0,1.35,1.35,0,0,1,1-.3l1.22,0a1.1,1.1,0,0,0,.36,0,3.55,3.55,0,0,0,.54-.3c.23-.11.53-.12.7-.31l0,0a1,1,0,0,0,.08-.14l0,0h0v0a2,2,0,0,1,.65-.41.33.33,0,0,0,.1-.06l0,0a2.94,2.94,0,0,1-.61-.61.77.77,0,0,1-.14-.25.38.38,0,0,1,0-.21.08.08,0,0,1,0,0h0c.08-.17.26-.33.36-.5h0a.79.79,0,0,0,0-.85c.1-1.67.56-3.29.66-5,0-.66,0-1.32.05-2s.1-1.3.18-1.95a29.18,29.18,0,0,0,.51-4.44,2.94,2.94,0,0,1,0-.42v0a2.42,2.42,0,0,1,.29-.87,6.58,6.58,0,0,1,.61-.88,9,9,0,0,0,2-3.26,7.28,7.28,0,0,1,.78-1.81,3,3,0,0,1,.67-.95,2.11,2.11,0,0,0,.45-.39,3.57,3.57,0,0,0,.34-.95c.06-.17.16-.31.21-.49v-.05a3.12,3.12,0,0,0,0-.52v-.15h0a5.26,5.26,0,0,1,.43-1.45l.08-.17a5.53,5.53,0,0,1-1.53-1.32,2.9,2.9,0,0,1-.36-.55,6.54,6.54,0,0,1-.44-1.67,26.25,26.25,0,0,1-1.06-4,4.44,4.44,0,0,0-.15-1.26c0-.1-.09-.2-.14-.3l-.07-.13s0,0,0-.05l-.07-.12-.1.07a75.6,75.6,0,0,1-8.12,5.55l-.24.14a1,1,0,0,0-.31.27l0,.05h0a3.37,3.37,0,0,0-.13.38,1,1,0,0,1-.7.56,2.18,2.18,0,0,1-1.6-.21l-.18-.1-.2.1-.27.1a5.4,5.4,0,0,1-1.55.14,4.83,4.83,0,0,0-1.56.17,3.44,3.44,0,0,1-1,.3h-.12a1.86,1.86,0,0,1-.57-.16l-.1-.05-.16-.08-.15-.12a.58.58,0,0,1-.14-.24.37.37,0,0,1,0-.21.1.1,0,0,1,0-.07.1.1,0,0,1,.07,0,2.12,2.12,0,0,1,.44,0h.3a.54.54,0,0,0,.38-.22.09.09,0,0,0,0-.06h0a.2.2,0,0,0,0-.11v0l-.16-.07-.07,0h0a.69.69,0,0,1-.13-.11.24.24,0,0,1-.06-.08.36.36,0,0,1-.08-.15h0a.76.76,0,0,0-.3,0c-.14,0-.28.12-.42.15a.37.37,0,0,1-.21,0c-.19-.07-.26-.31-.3-.52a.18.18,0,0,0,0-.12h0a1,1,0,0,1,0-.24.9.9,0,0,1,.34-.43l.41-.35,0,0s0-.07,0-.11a.88.88,0,0,1,0-.23.86.86,0,0,1,.34-.43l.91-.78a1.08,1.08,0,0,1,.58-.3,1.26,1.26,0,0,1,.85.47,1.88,1.88,0,0,0,1.11.54,1.68,1.68,0,0,0,.59-.08l.11,0-.07-.14a2.29,2.29,0,0,0-.11-.23,2.56,2.56,0,0,0,1.44-.69c.4-.35.75-.77,1.17-1.12s.95-.66,1.4-1c1-.85,1.75-2.1,2.87-2.85a3.93,3.93,0,0,0,1.11-.86c.08-.12.14-.26.22-.38a3.92,3.92,0,0,1,1.11-.81,5.85,5.85,0,0,0,1-1c.22-.27.44-.53.65-.8s.35-.74.56-1.09a4.7,4.7,0,0,1,.61-.85c.05-.1.1-.2.16-.3l.15-.25.11-.17c-.11-.2-.22-.38-.27-.45l0,0a2.82,2.82,0,0,0-.36-.33l-.39-.08a3.7,3.7,0,0,1-2.71-3.57h0a3.66,3.66,0,0,1,.4-1.66c.05-.11.11-.2.17-.31l-.16-.07a.57.57,0,0,1-.24-.19.69.69,0,0,1-.1-.25,1.19,1.19,0,0,1,.1-.61c0-.09.07-.18.11-.27v0a3.52,3.52,0,0,1,3-1.88A5.37,5.37,0,0,1,297,168.9a4.81,4.81,0,0,1,.88.81,5.28,5.28,0,0,1,.84,2.64,4.22,4.22,0,0,1,0,.87,1.7,1.7,0,0,1-.06.31l-.06.17-.06.13h0l-.06.12v0l0,0,0,.08a.21.21,0,0,0,0,.06h0l.74.08a1.49,1.49,0,0,1,.36,0,2.56,2.56,0,0,1,.65.41c.53.38,1.18.55,1.69.93a6.51,6.51,0,0,1,1.6,2.34,25.45,25.45,0,0,1,2,3.28l.6,1.63a23.31,23.31,0,0,0,1.3,3.14,45.25,45.25,0,0,1,2.31,4.13.73.73,0,0,0,.31.34A26.17,26.17,0,0,1,312.2,194a6.85,6.85,0,0,1,.73,2.06,4.84,4.84,0,0,1-.16,1.93,8.89,8.89,0,0,1-.37,1.1,1.61,1.61,0,0,0-.12.39v0a2.9,2.9,0,0,0,.09.72,1.26,1.26,0,0,1-.07.58.32.32,0,0,1,0,.09,3.76,3.76,0,0,0-.2.46v.06a2.27,2.27,0,0,0,.13.82,11.4,11.4,0,0,1,.13,3,1.89,1.89,0,0,0,.72,1.29,13.75,13.75,0,0,1,1.6,2.33,7,7,0,0,1,.65,1.31,10.72,10.72,0,0,1,.35,1.61c.33,1.66,1.38,3.14,1.66,4.81a4.33,4.33,0,0,0,1,2.07,5.17,5.17,0,0,1,.42.51,1.92,1.92,0,0,1,.21.46,3.21,3.21,0,0,1,.17,1.15,1.75,1.75,0,0,0,0,.56c.11.39.54.61.72,1s0,.83.11,1.24a1.4,1.4,0,0,0,.5.85l-.3.25a1.11,1.11,0,0,1,.26.27,1,1,0,0,1,.12.23c.17.38.17.84.31,1.25a.88.88,0,0,1,.08.53.83.83,0,0,0,0,.15c0,.12.12.19.17.31A.33.33,0,0,1,321,227.75Z"/><path class="cls-14" d="M294.24,178.46a8.25,8.25,0,0,0,2.14-1.07l2.35-1.5a2,2,0,0,1-1.53-1.06,5.35,5.35,0,0,1-.57-1.83,9.93,9.93,0,0,0-2.7,1.77c-.33.28-1,.7-1.11,1.14s.53.79.78,1.08C293.69,177.1,294.49,178.4,294.24,178.46Z"/><path class="cls-4" d="M294.24,178.46a8.25,8.25,0,0,0,2.14-1.07l2.35-1.5a2,2,0,0,1-1.53-1.06,5.35,5.35,0,0,1-.57-1.83,9.93,9.93,0,0,0-2.7,1.77c-.33.28-1,.7-1.11,1.14s.53.79.78,1.08C293.69,177.1,294.49,178.4,294.24,178.46Z"/><path class="cls-14" d="M281.39,190.84a2.67,2.67,0,0,1-1.32.39,1.87,1.87,0,0,1-1.11-.53c-.25-.22-.51-.49-.85-.47a1.1,1.1,0,0,0-.58.31l-.91.77a.63.63,0,0,0-.31.78c0,.21.11.45.31.52s.41-.09.61-.14a.7.7,0,0,1,.71.21.41.41,0,0,1,.13.27c0,.23-.26.38-.49.39s-.46-.06-.69,0a.09.09,0,0,0-.07,0,.12.12,0,0,0,0,.08.48.48,0,0,0,.14.44,1.38,1.38,0,0,0,.42.25,1.51,1.51,0,0,0,.56.16,3.17,3.17,0,0,0,1.11-.3,4.8,4.8,0,0,1,1.55-.17,5.47,5.47,0,0,0,1.56-.14,1.72,1.72,0,0,0,1.17-.95.27.27,0,0,0,0-.15.22.22,0,0,0-.11-.12c-.7-.53-1-1.16-1.78-1.53Z"/><path class="cls-4" d="M281.39,190.84a2.67,2.67,0,0,1-1.32.39,1.87,1.87,0,0,1-1.11-.53c-.25-.22-.51-.49-.85-.47a1.1,1.1,0,0,0-.58.31l-.91.77a.63.63,0,0,0-.31.78c0,.21.11.45.31.52s.41-.09.61-.14a.7.7,0,0,1,.71.21.41.41,0,0,1,.13.27c0,.23-.26.38-.49.39s-.46-.06-.69,0a.09.09,0,0,0-.07,0,.12.12,0,0,0,0,.08.48.48,0,0,0,.14.44,1.38,1.38,0,0,0,.42.25,1.51,1.51,0,0,0,.56.16,3.17,3.17,0,0,0,1.11-.3,4.8,4.8,0,0,1,1.55-.17,5.47,5.47,0,0,0,1.56-.14,1.72,1.72,0,0,0,1.17-.95.27.27,0,0,0,0-.15.22.22,0,0,0-.11-.12c-.7-.53-1-1.16-1.78-1.53Z"/><path class="cls-3" d="M296.19,177.36a1.55,1.55,0,0,0-1.34-.17,3,3,0,0,0-1.15.77,5,5,0,0,0-.81,1.08c-.22.37-.39.77-.6,1.15a11.28,11.28,0,0,1-1.37,1.86,5.47,5.47,0,0,1-1,1,3.92,3.92,0,0,0-1.11.81c-.08.12-.14.25-.23.37a3.57,3.57,0,0,1-1.1.85c-1.12.75-1.83,2-2.86,2.84-.45.36-1,.64-1.41,1s-.76.76-1.17,1.11a2.56,2.56,0,0,1-1.43.68A7.36,7.36,0,0,0,282,193a2.51,2.51,0,0,0,2.38.78,1,1,0,0,0,.71-.56,2.39,2.39,0,0,1,.14-.43,1.14,1.14,0,0,1,.32-.26,73.89,73.89,0,0,0,9.62-6.66c.81-.66,1.62-1.25,2.44-1.89a5.72,5.72,0,0,0,.83-.72,2.75,2.75,0,0,0,.33-3,6.51,6.51,0,0,0-.77-1A8.93,8.93,0,0,0,296.19,177.36Z"/><path class="cls-4" d="M296.19,177.36a1.55,1.55,0,0,0-1.34-.17,3,3,0,0,0-1.15.77,5,5,0,0,0-.81,1.08c-.22.37-.39.77-.6,1.15a11.28,11.28,0,0,1-1.37,1.86,5.47,5.47,0,0,1-1,1,3.92,3.92,0,0,0-1.11.81c-.08.12-.14.25-.23.37a3.57,3.57,0,0,1-1.1.85c-1.12.75-1.83,2-2.86,2.84-.45.36-1,.64-1.41,1s-.76.76-1.17,1.11a2.56,2.56,0,0,1-1.43.68A7.36,7.36,0,0,0,282,193a2.51,2.51,0,0,0,2.38.78,1,1,0,0,0,.71-.56,2.39,2.39,0,0,1,.14-.43,1.14,1.14,0,0,1,.32-.26,73.89,73.89,0,0,0,9.62-6.66c.81-.66,1.62-1.25,2.44-1.89a5.72,5.72,0,0,0,.83-.72,2.75,2.75,0,0,0,.33-3,6.51,6.51,0,0,0-.77-1A8.93,8.93,0,0,0,296.19,177.36Z"/><path class="cls-2" d="M290.76,224.24a2.08,2.08,0,0,0-.65.4c-.05.07-.08.14-.14.21s-.47.2-.7.32a4.68,4.68,0,0,1-.54.3,1.1,1.1,0,0,1-.36,0l-1.22,0c-.39,0-.85,0-1.07.33a1.14,1.14,0,0,0-.16.38,1.38,1.38,0,0,0,0,1.09,1.44,1.44,0,0,0,1.22.48,33.17,33.17,0,0,0,5.18-.1,4.22,4.22,0,0,1,.71,0,5.25,5.25,0,0,1,.55.09,10.73,10.73,0,0,0,2.83,0,1.47,1.47,0,0,0,.46-.11.46.46,0,0,0,.31-.34c0-.27-.21-.48-.24-.75s.07-.39,0-.54a.49.49,0,0,0-.12-.13,1.29,1.29,0,0,1-.26-.68l-.23-1.3a.39.39,0,0,0-.1-.25.44.44,0,0,0-.16-.06,8.38,8.38,0,0,0-2.91.1,8.23,8.23,0,0,1-1.49.08c-.21,0-.3,0-.45.1A3.24,3.24,0,0,1,290.76,224.24Z"/><circle class="cls-14" cx="293.82" cy="173.05" r="3.67"/><path class="cls-3" d="M320.39,224.49a6.5,6.5,0,0,1-4.17,1.42,3.43,3.43,0,0,1-1.83-.39c0-.21-.05-.43-.09-.64a2.34,2.34,0,0,1-1.48-1.25,18.4,18.4,0,0,1-.71-1.87,16.89,16.89,0,0,0-1.41-2.7c-.48-.8-1-1.6-1.52-2.36-.37-.5-.76-1-1.12-1.48a13,13,0,0,1-2.16-4.69,6.37,6.37,0,0,0-.26-.95,9,9,0,0,0-.92-1.44,4.78,4.78,0,0,1-.66-1.7c-.07-.35-.17-.72-.52-.76h0a17,17,0,0,1-2.56,4,4.78,4.78,0,0,0-.47.54,4.63,4.63,0,0,0-.31.58,3.63,3.63,0,0,1-.67,1,1.59,1.59,0,0,1-.86.47,5.87,5.87,0,0,1-.41,3.6c-.16.33-.34.65-.48,1a12.57,12.57,0,0,0-.52,4.46,4.24,4.24,0,0,1-.11.94,3.92,3.92,0,0,0-.3,1.89,9.86,9.86,0,0,1-5,.31,2.4,2.4,0,0,1-.93-.29,2.36,2.36,0,0,1-.61-.61.58.58,0,0,1-.14-.24c-.07-.29.25-.5.4-.76a.79.79,0,0,0,0-.86c.1-1.65.56-3.27.66-4.92,0-.66,0-1.32.05-2s.1-1.3.17-1.94a28.82,28.82,0,0,0,.52-4.41,2.64,2.64,0,0,1,.3-1.32,8.52,8.52,0,0,1,.61-.87,8.84,8.84,0,0,0,2-3.24,7,7,0,0,1,.77-1.8,3.32,3.32,0,0,1,.68-.94,2.67,2.67,0,0,0,.44-.38,3.47,3.47,0,0,0,.34-1,4.25,4.25,0,0,0,.21-.49,2.75,2.75,0,0,0,.05-.57,5.2,5.2,0,0,1,.53-1.76,5.49,5.49,0,0,1-1.53-1.31,3.53,3.53,0,0,1-.37-.55,7.26,7.26,0,0,1-.44-1.66,26.92,26.92,0,0,1-1.05-4,4.41,4.41,0,0,0-.15-1.25,3.54,3.54,0,0,0-.23-.48,1.87,1.87,0,0,1-.2-.49,8.83,8.83,0,0,1,0-1.15,6.58,6.58,0,0,0-.25-1,4.65,4.65,0,0,1,0-1.29,11.23,11.23,0,0,0,.1-1.53,5.87,5.87,0,0,1,1.6-4.54l0,0a10.09,10.09,0,0,0,.72-.74c.31-.36.51-.78.82-1.13.14-.15.3-.3.43-.45a3,3,0,0,1,.41-.46.62.62,0,0,1,.57-.15,1.43,1.43,0,0,0,.17.53l.76.08.36.06a2.28,2.28,0,0,1,.65.4c.53.37,1.18.55,1.69.92a6.56,6.56,0,0,1,1.6,2.32,27.15,27.15,0,0,1,2,3.26c.2.54.4,1.08.59,1.62a25,25,0,0,0,1.3,3.12c.73,1.39,1.72,2.64,2.31,4.1a.71.71,0,0,0,.3.34,25.43,25.43,0,0,1,2.14,3.54,6.77,6.77,0,0,1,.72,2.05,6,6,0,0,1-.52,3,1.33,1.33,0,0,0-.13.43,2.84,2.84,0,0,0,.09.72,1.33,1.33,0,0,1-.1.66,2.67,2.67,0,0,0-.2.46,1.89,1.89,0,0,0,.12.88,10.85,10.85,0,0,1,.12,3c0,.5.38.92.72,1.28a13.59,13.59,0,0,1,1.6,2.31,7.18,7.18,0,0,1,.65,1.3,11,11,0,0,1,.36,1.61c.3,1.65,1.37,3.12,1.65,4.78a4.35,4.35,0,0,0,1,2,5.17,5.17,0,0,1,.42.51,1.85,1.85,0,0,1,.21.45,3.45,3.45,0,0,1,.17,1.15,1.52,1.52,0,0,0,0,.56c.11.38.54.61.71,1s.06.82.12,1.24A1.39,1.39,0,0,0,320.39,224.49Z"/><path class="cls-14" d="M282.15,189.7a2.68,2.68,0,0,1-1.32.4,1.93,1.93,0,0,1-1.11-.53c-.25-.22-.52-.5-.85-.47a1.08,1.08,0,0,0-.58.3l-.91.77a.79.79,0,0,0-.33.43.82.82,0,0,0,0,.35c0,.21.11.45.3.52s.41-.08.61-.14a.72.72,0,0,1,.72.21.42.42,0,0,1,.12.28c0,.23-.25.38-.48.39s-.46-.07-.69-.05a.1.1,0,0,0-.07,0,.18.18,0,0,0-.05.07.51.51,0,0,0,.17.45,1.16,1.16,0,0,0,.41.25,1.63,1.63,0,0,0,.57.17,3.18,3.18,0,0,0,1.11-.31,4.77,4.77,0,0,1,1.55-.17,5.47,5.47,0,0,0,1.56-.14,1.75,1.75,0,0,0,1.17-.95.26.26,0,0,0,0-.15.23.23,0,0,0-.1-.12c-.71-.52-1-1.16-1.79-1.53Z"/><path class="cls-2" d="M292,170.8a2.73,2.73,0,0,0-.61.26,1,1,0,0,1-.86-.05.72.72,0,0,1-.24-.19.91.91,0,0,1,0-.85,3.48,3.48,0,0,1,3.1-2.16,5.34,5.34,0,0,1,3.58,1.42,5,5,0,0,1,.81.85,5.12,5.12,0,0,1,.85,2.62,3.54,3.54,0,0,1-.08,1.17,1.44,1.44,0,0,1-.66.9,1.35,1.35,0,0,1-1.16-.05,4.5,4.5,0,0,1-1-.73,1.54,1.54,0,0,0-.49-.3.5.5,0,0,0-.54.13c-.16.2-.12.53-.28.75a1.2,1.2,0,0,1-1.45,0,.91.91,0,0,1-.07-.72,2.35,2.35,0,0,0,.13-.74c-.06-.5-.5-.82-.63-1.28-.09-.3.1-.43.08-.71a.39.39,0,0,0-.44-.34Z"/><path class="cls-4" d="M303.55,205.65v0h0a17,17,0,0,1-2.56,4,4,4,0,0,0-.47.54,4.63,4.63,0,0,0-.31.58,3.63,3.63,0,0,1-.67,1l-.91.45,2.9-15.16Z"/><path class="cls-4" d="M299.33,182.7a5.17,5.17,0,0,1-.83.72c-.84.64-1.64,1.22-2.44,1.89s-1.32,1.06-2,1.57a2.3,2.3,0,0,1-.2-.49,8.67,8.67,0,0,1,0-1.14,8.24,8.24,0,0,0-.24-1,5.07,5.07,0,0,1,0-1.29,11.23,11.23,0,0,0,.1-1.53,6,6,0,0,1,1.6-4.54l0,0a2.8,2.8,0,0,1,.43-.19,1.56,1.56,0,0,1,1.33.16,9.13,9.13,0,0,1,1.83,1.79,7.17,7.17,0,0,1,.77,1A2.76,2.76,0,0,1,299.33,182.7Z"/><path class="cls-3" d="M297,176.22a1.51,1.51,0,0,0-1.34-.16,2.82,2.82,0,0,0-1.15.77,5.33,5.33,0,0,0-.82,1.07c-.21.37-.38.77-.59,1.15a11.36,11.36,0,0,1-1.37,1.87,5.42,5.42,0,0,1-1,1,3.92,3.92,0,0,0-1.11.81c-.09.12-.15.25-.23.37a3.42,3.42,0,0,1-1.1.85c-1.12.75-1.83,2-2.86,2.84-.45.36-1,.65-1.41,1s-.76.76-1.17,1.11a2.49,2.49,0,0,1-1.43.68,7.33,7.33,0,0,0,1.4,2.21,2.51,2.51,0,0,0,2.38.77,1,1,0,0,0,.7-.55,3.12,3.12,0,0,1,.15-.43,1,1,0,0,1,.32-.26,75,75,0,0,0,9.62-6.67c.81-.66,1.62-1.25,2.44-1.89a5.17,5.17,0,0,0,.83-.72,2.75,2.75,0,0,0,.33-3,6.43,6.43,0,0,0-.77-1A9,9,0,0,0,297,176.22Z"/><g class="cls-15"><path class="cls-16" d="M294,174.31a.88.88,0,0,1-.71-.24.87.87,0,0,1-.07-.72,2.34,2.34,0,0,0,.12-.74c-.05-.5-.49-.82-.63-1.29-.09-.3.11-.43.09-.7a.4.4,0,0,0-.46-.33h0a3.33,3.33,0,0,0-.61.27,1.1,1.1,0,0,1-.87-.05.71.71,0,0,1-.23-.19.93.93,0,0,1,0-.86v0a3.71,3.71,0,0,0-.26.53.91.91,0,0,0,0,.85.6.6,0,0,0,.23.19,1,1,0,0,0,.87,0,2.73,2.73,0,0,1,.61-.26.39.39,0,0,1,.47.3v0c0,.28-.17.41-.08.71.13.47.58.78.63,1.28a2.3,2.3,0,0,1-.13.74.93.93,0,0,0,.07.73.85.85,0,0,0,.71.23.8.8,0,0,0,.74-.25.88.88,0,0,0,.14-.38A1.13,1.13,0,0,1,294,174.31Z"/><path class="cls-16" d="M298.16,174.26a1.28,1.28,0,0,1-1.16,0,5.08,5.08,0,0,1-1-.72,1.59,1.59,0,0,0-.5-.3.49.49,0,0,0-.53.13.9.9,0,0,0-.16.42.56.56,0,0,1,.44-.05,1.74,1.74,0,0,1,.5.31,4.4,4.4,0,0,0,1,.72,1.28,1.28,0,0,0,1.16.05,1.4,1.4,0,0,0,.65-.85A1.16,1.16,0,0,1,298.16,174.26Z"/></g><circle class="cls-2" cx="266.71" cy="224.8" r="3.79"/><circle class="cls-4" cx="266.71" cy="224.8" r="3.79"/><circle class="cls-17" cx="266.71" cy="224.8" r="2.4"/><circle class="cls-4" cx="266.71" cy="224.8" r="2.4"/><path class="cls-2" d="M263.8,218.86l2.49,5.62a.48.48,0,0,0,.64.25.49.49,0,0,0,.24-.23l2.95-6Z"/><path class="cls-4" d="M263.8,218.86l2.49,5.62a.48.48,0,0,0,.64.25.49.49,0,0,0,.24-.23l2.95-6Z"/><circle class="cls-2" cx="243.08" cy="224.8" r="3.79"/><circle class="cls-4" cx="243.08" cy="224.8" r="3.79"/><circle class="cls-17" cx="243.08" cy="224.8" r="2.4"/><circle class="cls-4" cx="243.08" cy="224.8" r="2.4"/><path class="cls-2" d="M240.17,218.86l2.49,5.62a.48.48,0,0,0,.64.25.49.49,0,0,0,.24-.23l3-6Z"/><path class="cls-4" d="M240.17,218.86l2.49,5.62a.48.48,0,0,0,.64.25.49.49,0,0,0,.24-.23l3-6Z"/><path class="cls-2" d="M279,191.79a.55.55,0,0,0-.3-.45.59.59,0,0,0-.77.3v0l-2.17,5.41-.63,24.26h1l.38-24.21,2.46-5A.6.6,0,0,0,279,191.79Z"/><polygon class="cls-3" points="234.3 219.43 237.71 217.28 274.55 216.96 275.5 219.43 234.3 219.43"/><polygon class="cls-2" points="234.3 221.7 234.3 219.43 276.16 219.02 276.12 220.56 235.05 220.56 235.05 221.7 234.3 221.7"/><circle class="cls-2" cx="239.6" cy="226.13" r="3.79"/><circle class="cls-17" cx="239.6" cy="226.13" r="2.4"/><path class="cls-2" d="M236.7,220.19l2.48,5.62a.5.5,0,0,0,.64.25.53.53,0,0,0,.24-.23l2.95-6Z"/><circle class="cls-2" cx="269.05" cy="226.13" r="3.79"/><circle class="cls-17" cx="269.05" cy="226.13" r="2.4"/><path class="cls-2" d="M266.14,220.19l2.49,5.62a.49.49,0,0,0,.63.25.51.51,0,0,0,.25-.23l2.95-6Z"/><rect class="cls-8" x="240.24" y="193.22" width="25.01" height="25.01"/><path class="cls-3" d="M245.33,204.13h4.24v6.36h-4.24Zm5.3-3.17h4.23v9.53h-4.23Zm5.29,5.29h4.24v4.24h-4.24Z"/><rect class="cls-7" x="244.51" y="168.21" width="25.01" height="25.01"/><path class="cls-3" d="M252.78,186h8.47v1.59h-8.47Zm4.23-4.23a1.08,1.08,0,0,0,1-1.12,1.05,1.05,0,0,0-1-1,1,1,0,0,0-.3,0l-2.19-1.61-.13.11,1.62,2.21a1,1,0,0,0,0,.3,1.07,1.07,0,0,0,1,1.07Z"/><path class="cls-3" d="M257,173.83A6.88,6.88,0,0,0,251.59,185h1.95l.13-.13.73-.73-.76-.76-.73.73a5.2,5.2,0,0,1-1.16-2.82h1v-1h-1a5.2,5.2,0,0,1,1.16-2.81l.73.73.76-.76-.73-.73a5.29,5.29,0,0,1,2.81-1.17v1h1.06v-1a5.32,5.32,0,0,1,2.82,1.17l-.73.73.76.76.73-.73a5.2,5.2,0,0,1,1.16,2.81h-1v1.06h1a5.2,5.2,0,0,1-1.16,2.81l-.73-.72-.76.75.73.73.13.14h2A6.88,6.88,0,0,0,257,173.85Z"/><rect class="cls-4" x="114" y="110.58" width="25.01" height="25.01"/><rect class="cls-8" x="113.39" y="109.97" width="25.01" height="25.01"/><path class="cls-3" d="M123.24,116.12h2.12v12.71h-2.12Zm-3.18,9h2.12v3.71h-2.12Zm6.36-2.12h2.13v5.83h-2.13Zm3.17-3.18h2.12v9h-2.12Z"/><rect class="cls-4" x="249.39" y="110.27" width="25.01" height="25.01"/><rect class="cls-8" x="248.78" y="109.66" width="25.01" height="25.01"/><path class="cls-3" d="M265.37,119.59,262.48,124a1.57,1.57,0,0,1,.36,1,1.59,1.59,0,1,1-3.18,0,1.71,1.71,0,0,1,0-.31l-1.91-1.11a1.57,1.57,0,0,1-1.88.24l-2,1.9v1.9a1.41,1.41,0,0,0,1.41,1.41h12a1.41,1.41,0,0,0,1.41-1.41v-7l-1.94-1.29a1.58,1.58,0,0,1-1.39.28Z"/><path class="cls-3" d="M256.68,120.87a1.59,1.59,0,0,1,1.59,1.59h0v.21l2,1.11a1.59,1.59,0,0,1,1-.36,1.39,1.39,0,0,1,.35,0L264.5,119a1.6,1.6,0,0,1-.3-.92,1.59,1.59,0,1,1,3.13.38l1.37.91V116.7a1.41,1.41,0,0,0-1.41-1.41h-12a1.41,1.41,0,0,0-1.41,1.41v7.59l1.32-1.27a1.58,1.58,0,0,1,.94-2,1.49,1.49,0,0,1,.55-.1Z"/><rect class="cls-4" x="181.69" y="111.49" width="25.01" height="25.01"/><rect class="cls-8" x="181.08" y="110.88" width="25.01" height="25.01"/><path class="cls-3" d="M189.35,128.68h8.47v1.59h-8.47Zm4.24-4.23a1.07,1.07,0,1,0-.31-2.1l-2.18-1.59-.14.11,1.62,2.21a1,1,0,0,0-.05.3,1.07,1.07,0,0,0,1.06,1.07Z"/><path class="cls-3" d="M193.59,116.5a6.88,6.88,0,0,0-5.43,11.12h2l.13-.13.73-.73-.76-.76-.73.73a5.2,5.2,0,0,1-1.16-2.82h1v-1h-1a5.2,5.2,0,0,1,1.16-2.81l.73.73L191,120l-.73-.73a5.29,5.29,0,0,1,2.82-1.17v1h1.05v-1a5.29,5.29,0,0,1,2.82,1.17l-.73.73.76.76.73-.73a5.29,5.29,0,0,1,1.17,2.81h-1v1.06h1a5.29,5.29,0,0,1-1.17,2.81L197,126l-.76.76.73.72.14.14h2a6.88,6.88,0,0,0-5.42-11.12Z"/><rect class="cls-4" x="171.33" y="150.83" width="25.01" height="25.01"/><rect class="cls-8" x="169.19" y="149" width="25.01" height="25.01"/><path class="cls-3" d="M184.66,157.05l1.7,1.7-3.62,3.62-3-3-5.49,5.51,1.05,1,4.45-4.44,3,3,4.66-4.66,1.7,1.7v-4.46Z"/><path class="cls-18" d="M165.09,227.77c.18-.77.3-1.44.3-1.44a3,3,0,0,1,.33-1.46v-.21h0v-1.55a4.52,4.52,0,0,0-.38-.8,6,6,0,0,1,0-2.27,9.9,9.9,0,0,0,.77-4.1c-.25-1.58,2.11-7.07,2.11-7.07a6.83,6.83,0,0,0-.22-1.56,1.84,1.84,0,0,1,0-.33v0h0a12,12,0,0,1,.86-3l-.11-3.74a11,11,0,0,1,.34-5.19c.3-1,.49-1.86.61-2.5a1.55,1.55,0,0,1,0-.21c-1.78-.27-3.14-.5-3.14-.5s1-4.31,1.73-5.06a9.88,9.88,0,0,0,1.25-3.13s.37-3.05-.22-3.94a6,6,0,0,1-.67-2.44s-1.34-1-1.5-1.4a7,7,0,0,1-.45-1.91c0-.51.17-1,.11-1.24s.39-1.3.17-1.78a1.27,1.27,0,0,1-.09-.47v0a6.64,6.64,0,0,1,.12-1.26,3.45,3.45,0,0,1,1.32-.71l0-.12.08-.3a.57.57,0,0,1,.13-.08v-.55l-.21-1c-.41-1.71,1.87-2,1.87-2a1.19,1.19,0,0,1,.65-.56c.46-.17.08,2.57-.14,2.74a11,11,0,0,0-.92,1.41h0l0,.07a.57.57,0,0,1,.11.11l-.09.61v.09a2.68,2.68,0,0,1,.37.61,1.32,1.32,0,0,0-.34,1,3,3,0,0,1-.14,1.18s.32-.34.61-.27l1.12.33s.61.1.55.24.42.73.42.73l1.65-1.56s0-.1,0-.14a4.26,4.26,0,0,0,.15-.69,4.64,4.64,0,0,1-.53-.16,1.17,1.17,0,0,1-.45-.31,1.81,1.81,0,0,1-.27-.71,9.74,9.74,0,0,0-.61-1.36,4.44,4.44,0,0,1-.33-2.44,1.68,1.68,0,0,1,.25-.72c.27-.37.76-.52,1.11-.81s.59-.75,1-1a2,2,0,0,1,1.25-.11,6.6,6.6,0,0,1,2.33.85,1.19,1.19,0,0,0,.79.26,1.14,1.14,0,0,0,.56-.41v0l0,0a2.84,2.84,0,0,1,.25,1.22v.32h0V165a.69.69,0,0,0,.16.22l.13.18a.14.14,0,0,0,0-.06.94.94,0,0,1,.17.51.53.53,0,0,1-.12.38,1.78,1.78,0,0,1-.27.21,3.41,3.41,0,0,1,.05.55,3.2,3.2,0,0,1-1.55,2.72l-.06.14a4,4,0,0,0-.3,1.8.62.62,0,0,0,0,.13l.07.06h0s2.71,0,3.35-.55,1.62,1.42,1.62,1.42,1,.19,1.16,0,1.34,0,1.34,0a2.47,2.47,0,0,1,1.7-.61,4.92,4.92,0,0,1,1.25-.69h0a1.39,1.39,0,0,1,.61-.08,13.34,13.34,0,0,0,1.73-1.7c.39-.59,2.24-2.79,2.25-2.8v-.11l0-.32h.17a.3.3,0,0,1,0-.11,6.08,6.08,0,0,1,.39-.91s0-.41-.12-.51a7.46,7.46,0,0,1,.05-1.59s1.22-2.81,2.29-.71c0,0,2,1.36.32,3,0,0-.68.32-.78.59s-.3.64-.45,1l-.07.14h0l0,.27v.1c.32.18.54.36.49.5a3.17,3.17,0,0,0-.2.73s-2.36,3-2.67,4.23c0,0-6.35,3.78-8.44,4.05l.36,1.88a14.81,14.81,0,0,1,.08,1.53c0,.39.25,2.24.25,2.24a14.83,14.83,0,0,0,.68,3.07,5.28,5.28,0,0,1,.25,2,13.56,13.56,0,0,0,.41,2.29,5.94,5.94,0,0,1,.09,2.3s1,2.42-1.48.78c0,0-1.24-.08-2.68-.13v.74c0,1.39,0,3.3,0,4.75-.11,2.56-.89,7.63-.89,7.63v2.54a3.61,3.61,0,0,1,.07.73,4.68,4.68,0,0,1-.69,2.55l-.19,1.7a6.48,6.48,0,0,0-.47,1.79,1,1,0,0,0,0,.16.74.74,0,0,1,0,.26,14.17,14.17,0,0,1-.44,2.61s0,1.86-.3,2,.3,1.07.48,1.35a0,0,0,0,0,0,0l0,.06a1.26,1.26,0,0,1,.08.47.65.65,0,0,1-.3.65c-.53.33-.82.59-.37.7a3.88,3.88,0,0,1,.49.11l0-.07a.31.31,0,0,1,.18.33,1.37,1.37,0,0,1-.16.63,7.12,7.12,0,0,1-.76,1.38l-.21,0a1,1,0,0,0,.12.23.84.84,0,0,0,.31.28,1,1,0,0,0,.38.13,1.08,1.08,0,0,1,.79.39.82.82,0,0,1-.1,1.27l-2,.69s-3.43.45-3.25-.32.31-1.45.31-1.45a2.92,2.92,0,0,1,.28-1.36,1.06,1.06,0,0,1,.12-.2h-.12a6.16,6.16,0,0,0-.59-2c-.08-.08-.09-.13-.08-.18s.06-.15.17-.18a.25.25,0,0,1,0,.07l.34,0s.11-.89-.25-1.22a.31.31,0,0,1-.07-.26,1.46,1.46,0,0,1,0-.36l0,0a12,12,0,0,1,.8-2.09,2.62,2.62,0,0,0-.2-1.13,29,29,0,0,1,0-4.4,13.39,13.39,0,0,1,.17-2.88,3.24,3.24,0,0,0-.31-2v-.06h0a2,2,0,0,1,0-.3v0c.06-.52.17-1.47.25-1.9.11-.61,0-3.59,0-3.59l-.46-1.24-.89,2.19-.94,2.91a2.54,2.54,0,0,0-.49,1.24v.28a1.81,1.81,0,0,1-.3,1,4.53,4.53,0,0,1-.64,1.73,1.54,1.54,0,0,0-.4,1,18,18,0,0,1-.69,2.35,3.46,3.46,0,0,0-.2,1.35h0v.08s-.07.71-.06,1.31v.21h0a2,2,0,0,0,.06.48V218a5.68,5.68,0,0,1,.14,1.24,3.31,3.31,0,0,1-.53,2.07c-.76.86-1.22.75-1.22.75s.36,1.08.81,1.29l0,0v-.07a.5.5,0,0,1,.13.4,2.86,2.86,0,0,1-.55,1.6.77.77,0,0,1-.38.22l.07,0,.16.08a.9.9,0,0,0,.22.06,1,1,0,0,1,.79.38.82.82,0,0,1-.09,1.28l-2,.69S164.91,228.54,165.09,227.77Z"/><path class="cls-17" d="M165.82,222.3a5,5,0,0,1,.38.81v2.14c.54.88,3.36.59,3.72.1s.78-1.75.35-2-.78-1.29-.78-1.29.46.11,1.19-.75.51-2.78.37-3.24a9.87,9.87,0,0,1,0-2,4.15,4.15,0,0,1,.19-1.43,17.67,17.67,0,0,0,.68-2.35,1.54,1.54,0,0,1,.38-1,4.7,4.7,0,0,0,.61-1.73,1.74,1.74,0,0,0,.26-1.16,2.36,2.36,0,0,1,.46-1.4l.92-2.91.86-2.18.49,1.26s.13,3,0,3.59-.26,2.26-.26,2.26a3.35,3.35,0,0,1,.3,2,14.65,14.65,0,0,0-.16,2.88,30.35,30.35,0,0,0,0,4.4,2.56,2.56,0,0,1,.19,1.13s-1.1,2.37-.75,2.69.24,1.22.24,1.22-.75,0-.43.33a6.48,6.48,0,0,1,.56,2l3.26.38a6.51,6.51,0,0,0,.73-1.38c.43-1-.08-.89-.51-1s-.16-.37.35-.7.22-1,.22-1-.78-1.32-.52-1.43.31-2,.31-2a11.78,11.78,0,0,0,.4-2.8,5.51,5.51,0,0,1,.43-2l.19-1.7a4.66,4.66,0,0,0,.59-3.22v-2.61s.76-5.07.86-7.63c.08-1.64.05-3.88,0-5.27,0-.79,0-1.3,0-1.3l-11.64-1.22a10.09,10.09,0,0,1-.21,1.73c-.12.64-.31,1.46-.61,2.5a11.22,11.22,0,0,0-.32,5.18l.1,3.75s-1,2.51-.81,3.36a7.43,7.43,0,0,1,.22,1.56s-2.29,5.47-2.05,7.06a10.19,10.19,0,0,1-.75,4.1A6.49,6.49,0,0,0,165.82,222.3Z"/><g class="cls-19"><path class="cls-16" d="M179.3,222.28a.62.62,0,0,0,.29-.46l0,.06s.3.73-.22,1.05l-.17.11-.3,0C178.52,222.89,178.79,222.61,179.3,222.28Z"/><path class="cls-16" d="M175.2,222.07c-.08-.08-.08-.29,0-.55a1.31,1.31,0,0,1,.18.78A.51.51,0,0,0,175.2,222.07Z"/><path class="cls-16" d="M175.7,208.66a4.06,4.06,0,0,1,.21,1,3.26,3.26,0,0,0-.25-.68S175.67,208.85,175.7,208.66Z"/><path class="cls-16" d="M168.41,207.24a1.53,1.53,0,0,1,0-.3c0,.2.07.39.09.55C168.45,207.41,168.43,207.34,168.41,207.24Z"/><path class="cls-16" d="M175.77,218.24a1.8,1.8,0,0,1-.08-.61,2.2,2.2,0,0,1,.16.76A.71.71,0,0,0,175.77,218.24Z"/><path class="cls-16" d="M179.41,218.48s0,1.86-.31,2h0c-.13-.3-.22-.61-.1-.65.27-.1.3-2,.3-2a12.23,12.23,0,0,0,.41-2.8,5.31,5.31,0,0,1,.43-2l.19-1.7a4.73,4.73,0,0,0,.59-3.21v-2.61s.76-5.07.86-7.63c.07-1.64.05-3.87,0-5.27v-.67h.09s0,.52,0,1.31c0,1.39,0,3.63,0,5.27-.11,2.56-.86,7.62-.86,7.62v2.62a4.69,4.69,0,0,1-.61,3.21l-.19,1.69a5.58,5.58,0,0,0-.43,2A11.88,11.88,0,0,1,179.41,218.48Z"/><path class="cls-16" d="M165.71,221.58a5,5,0,0,1,.38.81v.38q-.09-.21-.27-.54a1.69,1.69,0,0,1-.11-.67Z"/><path class="cls-16" d="M169.65,222a5.11,5.11,0,0,1-.27-.64s.46.11,1.19-.76a3.81,3.81,0,0,0,.48-2.59c.14.46.35,2.38-.37,3.24A1.94,1.94,0,0,1,169.65,222Z"/><path class="cls-16" d="M171.05,216c0,.53-.06,1.06-.05,1.6a1,1,0,0,0-.06-.25,10,10,0,0,1,0-2,4.15,4.15,0,0,1,.19-1.43,17.19,17.19,0,0,0,.68-2.34,1.56,1.56,0,0,1,.38-1,4.67,4.67,0,0,0,.61-1.72,1.81,1.81,0,0,0,.27-1.16,2.28,2.28,0,0,1,.45-1.4l.92-2.91.86-2.19.49,1.27v.41l-.37-1-.86,2.19-.92,2.91a2.38,2.38,0,0,0-.45,1.4,1.81,1.81,0,0,1-.27,1.16,4.8,4.8,0,0,1-.61,1.72,1.62,1.62,0,0,0-.38,1,19,19,0,0,1-.67,2.35A4,4,0,0,0,171.05,216Z"/></g><path class="cls-20" d="M168.79,166.43l.2,1v.76l1.13.11.12-.23h0a10.74,10.74,0,0,1,.88-1.41c.21-.18.57-2.92.13-2.75a1.25,1.25,0,0,0-.63.57S168.39,164.72,168.79,166.43Z"/><path class="cls-4" d="M169,168.18l1.13.11.12-.23h0a1,1,0,0,0-1.24-.21Z"/><path class="cls-21" d="M168.69,168.71l1.48.34,0-.22.09-.61a1,1,0,0,0-1.43-.2h0l-.07.3Z"/><path class="cls-20" d="M192.72,166.54l1.58.85.14-.31c.15-.3.38-.79.44-1s.75-.61.75-.61c1.66-1.58-.3-2.94-.3-2.94-1.05-2.1-2.21.71-2.21.71a7.46,7.46,0,0,0-.05,1.59c.12.1.11.5.11.5a7.41,7.41,0,0,0-.38.92A2.09,2.09,0,0,0,192.72,166.54Z"/><path class="cls-4" d="M192.72,166.54l1.58.85.14-.31c-.22-.18-1-.83-1.27-.8a1.21,1.21,0,0,1-.38,0C192.74,166.45,192.72,166.54,192.72,166.54Z"/><path class="cls-21" d="M192.55,167l1.78.87,0-.38,0-.26s-1-.89-1.33-.85a1.77,1.77,0,0,1-.46,0l0,.3Z"/><path class="cls-20" d="M173.1,173s7.76.87,6.31.4a1.93,1.93,0,0,1-1.49-1.68,4,4,0,0,1,.29-1.8,7.91,7.91,0,0,1,.69-1.4s-5.93-3.26-4.74-.3a4.84,4.84,0,0,1,.33,1.4,3.84,3.84,0,0,1-.15,1.43A4.22,4.22,0,0,1,173.1,173Z"/><path class="cls-4" d="M174.16,168.2a4.84,4.84,0,0,1,.33,1.4,2.73,2.73,0,0,0,2,.44,3.42,3.42,0,0,0,1.76-.15,7.91,7.91,0,0,1,.69-1.4S173,165.23,174.16,168.2Z"/><circle class="cls-20" cx="176.56" cy="167.04" r="3.21"/><path class="cls-4" d="M173.1,173s7.76.87,6.31.4a1.93,1.93,0,0,1-1.49-1.68,4.31,4.31,0,0,0-1.66-.88,2.34,2.34,0,0,0-1.41,0,1.7,1.7,0,0,0-.51.24A4.22,4.22,0,0,1,173.1,173Z"/><path class="cls-4" d="M168.69,168.71l1.48.34,0-.22a1.3,1.3,0,0,0-1.42-.48Z"/><path class="cls-4" d="M192.55,167l1.78.87,0-.38a13.1,13.1,0,0,0-1.8-.79Z"/><path class="cls-4" d="M170,192.52c3,.47,7.27,1.09,8,.88a19.69,19.69,0,0,1,3.93-.09c0-.79,0-1.31,0-1.31l-11.64-1.22A10.09,10.09,0,0,1,170,192.52Z"/><path class="cls-2" d="M167,191.81s9.89,1.7,11,1.38,6.52,0,6.52,0c2.45,1.65,1.43-.78,1.43-.78a5.89,5.89,0,0,0-.09-2.29,14.83,14.83,0,0,1-.4-2.29,5.21,5.21,0,0,0-.24-2,15.23,15.23,0,0,1-.65-3.08s-.27-1.83-.24-2.24a14.4,14.4,0,0,0-.08-1.52l-.35-1.89c2-.27,8.17-4,8.17-4,.3-1.27,2.58-4.24,2.58-4.24a2.94,2.94,0,0,1,.19-.72c.16-.43-2.26-1.3-2.26-1.3s-1.81,2.21-2.19,2.81a11.88,11.88,0,0,1-1.67,1.69,1.43,1.43,0,0,0-.61.08h0a4.74,4.74,0,0,0-1.22.69,2.37,2.37,0,0,0-1.64.61s-1.1-.16-1.29,0-1.13,0-1.13,0-.95-2-1.57-1.42-3.24.57-3.24.57a3.89,3.89,0,0,0-1.74-1,2.39,2.39,0,0,0-1.4,0,1.93,1.93,0,0,0-.56.27l-1.59,1.57s-.46-.61-.41-.73-.54-.25-.54-.25l-1.08-.32c-.3-.08-.56.24-.59.27a3.14,3.14,0,0,0,.14-1.18,1.32,1.32,0,0,1,.32-1c-.94-2.32-3.07-.38-3.07-.38a4.32,4.32,0,0,0,0,1.75c.21.48-.22,1.52-.16,1.78s-.11.73-.11,1.24a7.26,7.26,0,0,0,.43,1.91c.16.44,1.46,1.41,1.46,1.41a6.3,6.3,0,0,0,.64,2.44c.57.91.22,3.93.22,3.93a10.12,10.12,0,0,1-1.22,3.13C168,187.51,167,191.81,167,191.81Z"/><path class="cls-22" d="M177.42,170a.64.64,0,0,1-.25.43.63.63,0,0,1-.3.07,6.63,6.63,0,0,1-2.91-.27,1.14,1.14,0,0,1-.44-.31,1.83,1.83,0,0,1-.25-.71,11,11,0,0,0-.59-1.36,4.54,4.54,0,0,1-.32-2.44,1.66,1.66,0,0,1,.24-.72c.26-.37.74-.52,1.08-.81s.56-.75,1-1a1.84,1.84,0,0,1,1.22-.11,6.52,6.52,0,0,1,2.26.85,1.23,1.23,0,0,0,.76.26,1.07,1.07,0,0,0,.55-.43,2.92,2.92,0,0,1,.24,1.4.74.74,0,0,0,0,.21.66.66,0,0,0,.15.22.82.82,0,0,1,.15,1c-.1.12-.26.19-.36.3a1.33,1.33,0,0,0-.12.84.43.43,0,0,1-.07.29.39.39,0,0,1-.39.09,1.24,1.24,0,0,0-.43,0,.71.71,0,0,0-.36.28A5,5,0,0,0,177.42,170Z"/><path class="cls-4" d="M178,171.89s-4,.53-4.37-.07"/><path class="cls-23" d="M125,203.59h-3a.3.3,0,0,0-.3.3.31.31,0,0,0,.3.31h.61v4.07H112.09a.3.3,0,0,0-.23-.11h-3a.3.3,0,0,0-.3.31.29.29,0,0,0,.3.3h.61V213H99.34a.3.3,0,0,0-.29-.22H96a.3.3,0,0,0-.3.3.31.31,0,0,0,.3.31h.31v4.29H86.07a.3.3,0,0,0-.13,0h-3a.29.29,0,0,0-.3.3.3.3,0,0,0,.3.31h.31v4.1H73.08a.29.29,0,0,0-.25-.14h-3a.31.31,0,1,0,0,.61h.3v4.57H139V203.59Z"/><path class="cls-24" d="M53.12,222.33a2.38,2.38,0,0,0,1,1.13,10.31,10.31,0,0,1,1.3.89c.47.45.77,1.06,1.32,1.4a2.44,2.44,0,0,0,.67.28,4,4,0,0,0,.83.17,5.73,5.73,0,0,0,2.13-.37,1.84,1.84,0,0,0,.64-.28,2.73,2.73,0,0,0,.25-.23,1.39,1.39,0,0,0,.33-.53.4.4,0,0,0,0-.32.68.68,0,0,0-.27-.26,4.53,4.53,0,0,0-.61-.34,3.23,3.23,0,0,1-.8-.42,1.66,1.66,0,0,1-.38-.53,4.41,4.41,0,0,1-.44-1,3.52,3.52,0,0,0-.25-.71c-.13-.25-.34-.45-.48-.69a.56.56,0,0,0,.22,0,2,2,0,0,0-.24-1.08c.3,0,.45-.37.4-.67s-.19-.61-.06-.88a1.41,1.41,0,0,1,.34-.39,4.66,4.66,0,0,0,.67-2,6.31,6.31,0,0,1,.5-1.09c.59-1.05.85-2.37,1.79-3.13l.85-.68a.34.34,0,0,0,.13-.16c.05-.13-.06-.26,0-.4s.35-.35.46-.57a1.43,1.43,0,0,0,.09-.34c.09-.39.46-.63.73-.92a2,2,0,0,0,.54-1.66,1.36,1.36,0,0,1,0-.45,1.88,1.88,0,0,1,.12-.3,2.76,2.76,0,0,0,.1-1,9.22,9.22,0,0,1,.19-1.57l4.17-.95.08.09c.37.38.55.92.91,1.31l.48.52c.09.1.19.24.13.36s-.12.13-.18.19a.33.33,0,0,0,.07.46.39.39,0,0,0,.21.06.63.63,0,0,0,.18.87.52.52,0,0,0,.15.07,2.7,2.7,0,0,1-.35.53.44.44,0,0,1,.09.27l-.06.17a.7.7,0,0,0,0,.38,5.83,5.83,0,0,1,0,3,2,2,0,0,0-.08.41,1.34,1.34,0,0,0,.05.35c.14.5.42,1,.23,1.52-.06.12-.12.24-.17.36-.1.37.15.73.29,1.08a3.78,3.78,0,0,1,.13,1.53c0,.71-.07,1.41-.1,2.11a.75.75,0,0,0,0,.39.67.67,0,0,0,.42.33c0,.14-.08.28-.13.42a.26.26,0,0,0-.35-.09.27.27,0,0,0-.08.07.49.49,0,0,0-.05.2,5.06,5.06,0,0,0,.24,1.5.65.65,0,0,1,0,.24,1.13,1.13,0,0,1-.08.24s0,0,0,.06a1.63,1.63,0,0,0,.07.73.63.63,0,0,0,.21.38.71.71,0,0,0,.28.09c1.45.17,2.87-.78,4.33-.61.31,0,.59.11.89.14a4.19,4.19,0,0,0,1.06-.05c.48-.06,1-.14,1.45-.24a3.59,3.59,0,0,0,1-.34,1.28,1.28,0,0,0,.68-.83.59.59,0,0,0-.06-.47.49.49,0,0,0-.12-.13,1.21,1.21,0,0,0-.38-.18l-.56-.2a3.47,3.47,0,0,0-.84-.22c-.21,0-.43,0-.64,0a4.18,4.18,0,0,1-2-.88l-.84-.55a.54.54,0,0,0-.57-.1l-.11,0,.51-.29q0-3.76,0-7.54a7.68,7.68,0,0,0-.17-1.85c-.09-.35-.19-.8.11-1,.08-.27-.08-.54-.15-.81s0-.66.3-.66a3.43,3.43,0,0,1-.28-1.66,13.31,13.31,0,0,0-.09-1.39A3.91,3.91,0,0,0,75,201l4.12-.94-.14-.59.61-.14-3.31-14.58a.36.36,0,0,0,.25-.34c0-.15-.15-.28-.11-.42s.11-.12.16-.19a.48.48,0,0,0,0-.55.26.26,0,0,1-.06-.13.42.42,0,0,1,0-.1.71.71,0,0,0-.21-.84.23.23,0,0,0-.12-.06.88.88,0,0,1-.28,0c-.1,0-.1-.09-.21-.1h0l-1.26-5.52a4.63,4.63,0,0,0,.22-.81,2.58,2.58,0,0,0-.13-1.48,3,3,0,0,0,.73-.55.42.42,0,0,0,.1-.52,3.68,3.68,0,0,0-1.22-1.66c-.18-.14-.59-.48-.84-.41a2.56,2.56,0,0,1,.2-.26,2.74,2.74,0,0,0,.4-.5,3.48,3.48,0,0,0,2.07-4,.89.89,0,0,0,0-.14.54.54,0,0,0,.46-.17.61.61,0,0,0,.06-.61,4.29,4.29,0,0,0-.31-.55c-.22-.41-.17-.95-.4-1.33a4.6,4.6,0,0,0-.84-.92,2.67,2.67,0,0,0-2.22-.51,5,5,0,0,0-2.09,1,2.64,2.64,0,0,1-.58.41c-.35.16-.78.15-1.06.4a1.29,1.29,0,0,0-.19,1.4,2.43,2.43,0,0,1,.19,1.46,3.2,3.2,0,0,0-.17.43A1.23,1.23,0,0,0,69,168a1,1,0,0,0,.1-.17v0l.06.23-.1,0c-.14.07-.21.24-.32.34s-.42.17-.48.36a2.4,2.4,0,0,1,0,.28c-.07.18-.33.18-.46.31a.39.39,0,0,0-.08.4.75.75,0,0,0,.1.2.42.42,0,0,0,0,.27l-1.7.41a3.66,3.66,0,0,0-.79.26,1.23,1.23,0,0,0-.58.57.09.09,0,0,1-.07.08h-.08a1.55,1.55,0,0,0-.88,0,4.85,4.85,0,0,0-2.26,1.65.79.79,0,0,0-.21.43c0,.18.08.38,0,.54l-.09,0a3.82,3.82,0,0,0-.72.31,6.85,6.85,0,0,0-.7.5c-1,.7-2.2,1-2.87,2a2.76,2.76,0,0,1-.72.9l-.45.23a1.4,1.4,0,0,0-.37.95l-6,1.36.13.6-.61.13,5.54,24.37,5.11-1.16a1.41,1.41,0,0,0,.05.35,2.83,2.83,0,0,0,.35,1,.59.59,0,0,0-.41.54,5.62,5.62,0,0,1,0,.71,2.38,2.38,0,0,1-.75,1c-1.36,1.4-1.65,3.46-2.34,5.26a19.76,19.76,0,0,0-1,2.52c-.25,1-.26,2.14-1,2.82a.6.6,0,0,0-.18.21.31.31,0,0,0,0,.19.93.93,0,0,0,.29.46l0,.07h-.09c-.16,0-.25.21-.3.33a3.46,3.46,0,0,0-.41,1.37h-.13a.57.57,0,0,0-.41.34A.91.91,0,0,0,53.12,222.33ZM73,171.75h-.06a1.57,1.57,0,0,1,.18-.42A2.9,2.9,0,0,0,73,171.75Zm-16.32,48.7a.48.48,0,0,1-.17.27h0l0-.1.07-.19Z"/><path class="cls-2" d="M74.5,219.23a6.76,6.76,0,0,1-2.86.56c-.15,0-.34-.08-.35-.23a.4.4,0,0,1,0-.15,8.83,8.83,0,0,0,.49-1.83.2.2,0,0,1,0-.08.1.1,0,0,1,.09,0c.45,0,.87.2,1.32.22a1.89,1.89,0,0,0,.66-.1c.18-.06.41-.28.58-.3C74.54,217.93,74.43,218.57,74.5,219.23Z"/><path class="cls-2" d="M56.17,221.72a5.11,5.11,0,0,1-2-1.17.24.24,0,0,1-.07-.12.32.32,0,0,1,0-.14,5.67,5.67,0,0,1,1-1.75,4,4,0,0,1,.92.52c.19.13.69.31.75.55s-.1.35-.15.48-.13.36-.19.54A7,7,0,0,0,56.17,221.72Z"/><path class="cls-17" d="M71.22,222a.64.64,0,0,0,.2.39.54.54,0,0,0,.28.08c1.43.18,2.83-.77,4.27-.61.3,0,.58.12.87.15a5.15,5.15,0,0,0,1-.05c.48-.06,1-.14,1.43-.24a3.33,3.33,0,0,0,1-.33,1.34,1.34,0,0,0,.68-.83.69.69,0,0,0-.07-.47.37.37,0,0,0-.12-.13,1.27,1.27,0,0,0-.37-.18l-.56-.21a3.51,3.51,0,0,0-.83-.22c-.21,0-.42,0-.63,0a4.17,4.17,0,0,1-2-.89l-.82-.55a.57.57,0,0,0-.27-.13.7.7,0,0,0-.29,0,3.93,3.93,0,0,0-1.68,1,2,2,0,0,1-.39.37,1.63,1.63,0,0,1-1.28.12c-.19-.05-.17-.11-.28-.25s-.3-.21-.42,0a.47.47,0,0,0-.06.2,5.48,5.48,0,0,0,.25,1.5.85.85,0,0,1,0,.23,1.06,1.06,0,0,1-.09.25s0,0,0,.06A1.36,1.36,0,0,0,71.22,222Z"/><path class="cls-2" d="M71.22,222a.64.64,0,0,0,.2.39.54.54,0,0,0,.28.08c1.43.18,2.83-.77,4.27-.61.3,0,.58.12.87.15a5.15,5.15,0,0,0,1-.05c.48-.06,1-.14,1.43-.24a3.33,3.33,0,0,0,1-.33,1.34,1.34,0,0,0,.68-.83.69.69,0,0,0-.07-.47.37.37,0,0,0-.12-.13c0,.18,0,.41-.08.5a.93.93,0,0,1-.52.58,1.44,1.44,0,0,1-.58.06,28.6,28.6,0,0,1-3.81.07,9.45,9.45,0,0,0-1.3-.18,8.27,8.27,0,0,0-1.31.19c-.69.09-1.4,0-2.09.08A1.44,1.44,0,0,0,71.22,222Z"/><path class="cls-17" d="M53.11,222.33a2.51,2.51,0,0,0,1,1.13,8.27,8.27,0,0,1,1.29.9c.46.44.76,1.06,1.31,1.4a2.38,2.38,0,0,0,.66.28,3.86,3.86,0,0,0,.82.17,5.45,5.45,0,0,0,2.11-.36,1.63,1.63,0,0,0,.63-.28,1.31,1.31,0,0,0,.23-.24,1.26,1.26,0,0,0,.32-.53.44.44,0,0,0,0-.3.75.75,0,0,0-.27-.26,5.24,5.24,0,0,0-.61-.34,3,3,0,0,1-.79-.43,1.74,1.74,0,0,1-.38-.52,5.16,5.16,0,0,1-.44-1.06,3.13,3.13,0,0,0-.24-.71c-.19-.35-.55-.63-.61-1a.3.3,0,0,0,0-.16.23.23,0,0,0-.15-.05,2.24,2.24,0,0,0-.73,0,.78.78,0,0,0-.57.39c-.08.14-.1.3-.23.4a.43.43,0,0,1-.22.06,1.82,1.82,0,0,1-1.06-.08,1.3,1.3,0,0,1-.63-.82c0-.13,0-.28-.2-.26s-.24.2-.31.32a3.53,3.53,0,0,0-.39,1.38.33.33,0,0,0-.14,0,.56.56,0,0,0-.4.33A1,1,0,0,0,53.11,222.33Z"/><path class="cls-2" d="M53.11,222.33a2.51,2.51,0,0,0,1,1.13,8.27,8.27,0,0,1,1.29.9c.46.44.76,1.06,1.31,1.4a2.38,2.38,0,0,0,.66.28,3.86,3.86,0,0,0,.82.17,5.45,5.45,0,0,0,2.11-.36,1.63,1.63,0,0,0,.63-.28,1.31,1.31,0,0,0,.23-.24,1.26,1.26,0,0,0,.32-.53,1.14,1.14,0,0,0-.45,0c-.3.09-.46.43-.74.59s-.88,0-1.33,0-.59.08-.88.05a2.25,2.25,0,0,1-.72-.23,3.6,3.6,0,0,1-.82-.5A4.25,4.25,0,0,1,56,224a12.15,12.15,0,0,0-1.15-1.34.91.91,0,0,0-.21-.18l-.25-.1a1.77,1.77,0,0,1-.72-.81,1.75,1.75,0,0,0-.18-.29.57.57,0,0,0-.4.34A.94.94,0,0,0,53.11,222.33Z"/><path class="cls-25" d="M73,170.82a3,3,0,0,0-.63,1.19,21.3,21.3,0,0,0-.41,4.18c-.46-.31-2,0-2.44-.31-.19-.12-1.22-.72-1.4-.87s-1.22-.34-1.37-.5c-.55-.61,2-4,1.45-4.58a.13.13,0,0,1,0-.18h0a4.71,4.71,0,0,1,.77-.84,1.5,1.5,0,0,0,.51-1,3,3,0,0,1,.93.37c.7.36,1.38.74,2.06,1.13.27.16.75.33.92.59S73.18,170.61,73,170.82Z"/><path class="cls-7" d="M67.63,170.86a10.49,10.49,0,0,1,1.61.8,2.8,2.8,0,0,1,1.17,1.19c.09.2.14.42.22.63.35.92,1.32,1.41,1.88,2.21a5.3,5.3,0,0,1,.42.78,11.27,11.27,0,0,1,.54,1.61c.13.53-.31,1-.39,1.56a8.55,8.55,0,0,0,0,1.6,19.1,19.1,0,0,1-.22,3c-.26,2.11-1.32,8-1.59,10.14-2.29-.05-8.33,0-10.51-.7-.73-.23,3.36-5.69,2.62-5.83a.27.27,0,0,1-.28-.24.13.13,0,0,1,0-.06c0-3.15,1.58-6.1,1.89-9.22a26.26,26.26,0,0,1,.76-3.15,28.32,28.32,0,0,1,.53-2.92,1.54,1.54,0,0,1,.26-.53,1.52,1.52,0,0,1,.34-.33C67.14,171.21,67.39,171.05,67.63,170.86Z"/><circle class="cls-25" cx="72.04" cy="167.13" r="3.47"/><path class="cls-2" d="M69,169.5a1.18,1.18,0,0,0-1.32.1.63.63,0,0,0-.23.7l-1.68.41A3.55,3.55,0,0,0,65,171a1.21,1.21,0,0,0-.57.57.1.1,0,0,1-.06.08s-.06,0-.08,0a1.55,1.55,0,0,0-.88,0,4.63,4.63,0,0,0-2.21,1.64.79.79,0,0,0-.21.43c0,.2.11.43,0,.61a20.68,20.68,0,0,1,.14,4.79,2,2,0,0,1-.35.84,3.16,3.16,0,0,0-.36.94c-.12.86.51,1.7.4,2.57a4.3,4.3,0,0,1-.37,1,2.4,2.4,0,0,0-.23,1.29c0,.19.1.38.14.58a3.46,3.46,0,0,1,0,.79c0,.49,0,1-.07,1.47a3.2,3.2,0,0,1-.72,2.21,9.75,9.75,0,0,0,4.84-1.12,2.54,2.54,0,0,0,.54-.44,3.57,3.57,0,0,0,.67-1.95,8.34,8.34,0,0,0,.09-2.34,2.38,2.38,0,0,1-.06-.75,2.07,2.07,0,0,1,.75-1.11,4.74,4.74,0,0,0,.94-1.15,1.86,1.86,0,0,0,.16-1.44c-.09-.24-.23-.44-.31-.68a.58.58,0,0,1,.19-.65c1.1-.61,1.34-2.13,1.33-3.4a10.34,10.34,0,0,0-.27-1.91l-.26-1.22a1.68,1.68,0,0,0,.26-1.27,1.36,1.36,0,0,1-.08-.39,1,1,0,0,1,.18-.47A3.78,3.78,0,0,0,69,169.5Z"/><path class="cls-2" d="M73.45,172.55a8.56,8.56,0,0,0,.31,1.13c.06.14.15.26.22.39a2.55,2.55,0,0,1,.21,1.63,9,9,0,0,1-.5,1.6,2,2,0,0,0-.14.55,2.26,2.26,0,0,0,0,.58,16.53,16.53,0,0,1,.11,2.34,4.38,4.38,0,0,1-.38,2,.55.55,0,0,1-.28.3.48.48,0,0,1-.29,0l-.94-.13a.9.9,0,0,1-.22-.06.58.58,0,0,1-.2-.31,4.94,4.94,0,0,1-.08-2.13A56.5,56.5,0,0,0,72,174a4.42,4.42,0,0,1,.18-2.05c.13-.23.09-.14.31-.09l.33.09A1,1,0,0,1,73.45,172.55Z"/><path class="cls-3" d="M71.7,176.93c0,1.28.09,2.55.13,3.82l-3.57-.12a2.41,2.41,0,0,1,.06-1.07,24.1,24.1,0,0,0,0-2.55c.06-.64.26-1.27.31-1.92,0-.37,0-.75,0-1.13a8.48,8.48,0,0,1,.16-1.11,6.81,6.81,0,0,1,.42-1.53,2.3,2.3,0,0,1,1.31.48,1.74,1.74,0,0,1,.37.68c.23.74.13,1.56.39,2.29A6.63,6.63,0,0,1,71.7,176.93Z"/><path class="cls-17" d="M71.25,194.09a4.14,4.14,0,0,0,.81,2.11,16.93,16.93,0,0,1,1.43,3.12,2.55,2.55,0,0,0,.35.79,7.73,7.73,0,0,0,.56.58,3.38,3.38,0,0,1,.72,2c0,.46.08.91.09,1.39a3.44,3.44,0,0,0,.29,1.66c-.28,0-.38.39-.31.66s.24.54.16.81c-.3.19-.2.65-.11,1a8.27,8.27,0,0,1,.18,1.86c0,2.51.06,5,0,7.53-1.13.65-2.44,1.36-3.73,1.1a.78.78,0,0,1-.59-.37,1,1,0,0,1,0-.38l.1-2.12a3.72,3.72,0,0,0-.14-1.52c-.14-.36-.39-.72-.28-1.08a3.92,3.92,0,0,1,.16-.36c.2-.48-.09-1-.22-1.52a1.07,1.07,0,0,1-.06-.35,1.86,1.86,0,0,1,.08-.41,5.83,5.83,0,0,0,0-3,.82.82,0,0,1,0-.38l.06-.18a.46.46,0,0,0-.09-.27,2.59,2.59,0,0,0,.34-.52.64.64,0,0,1-.39-.81l.06-.13a.33.33,0,0,1-.33-.33.38.38,0,0,1,.05-.19c.07-.07.15-.11.19-.2s0-.25-.13-.35l-.47-.52c-.35-.39-.54-.93-.9-1.31a10.93,10.93,0,0,1-1.35-1.81l-1.55-2.44-.52.71a2,2,0,0,0-.4.73,3.22,3.22,0,0,0,0,.76c.09,1.5-.53,3-.55,4.46a2.76,2.76,0,0,1-.09,1,1.66,1.66,0,0,0-.12.31,1.37,1.37,0,0,0,0,.45,2.09,2.09,0,0,1-.53,1.65c-.27.31-.64.54-.72.92a2.09,2.09,0,0,1-.08.34c-.12.22-.44.32-.46.56s.1.28,0,.42a.37.37,0,0,1-.13.15l-.83.68c-.91.76-1.18,2.07-1.75,3.12a5.6,5.6,0,0,0-.49,1.09c-.2.67-.18,1.45-.66,2a1.64,1.64,0,0,0-.34.4c-.12.27,0,.58.07.87s-.09.7-.39.68a2.11,2.11,0,0,1,.24,1.08,5.67,5.67,0,0,1-3.61-.59,1.38,1.38,0,0,1-.74-.78.31.31,0,0,1,0-.19.68.68,0,0,1,.17-.21c.77-.67.78-1.83,1-2.81a19.64,19.64,0,0,1,.94-2.52c.68-1.81,1-3.86,2.29-5.26a2.2,2.2,0,0,0,.74-1c0-.24,0-.48,0-.71a.57.57,0,0,1,.39-.54,3.28,3.28,0,0,1-.35-1,1.48,1.48,0,0,1,0-.47,2.72,2.72,0,0,1,.13-.49,4.31,4.31,0,0,0,.07-2.44,3.79,3.79,0,0,1-.24-1.24c0-.22.09-.43.12-.64a3.84,3.84,0,0,0-.07-1.12L59.14,197a6.12,6.12,0,0,1-.13-1.41c0-1.13-.7-5.67.18-6.4s3.33,2.33,4.45,2.15a5,5,0,0,1,1.5-.05,7.31,7.31,0,0,1,2.25.85l2.42,1.25A7.54,7.54,0,0,0,71.25,194.09Z"/><path class="cls-2" d="M74.37,162.64a2.65,2.65,0,0,0-2.19-.52,4.83,4.83,0,0,0-2.05,1,2.85,2.85,0,0,1-.58.4c-.34.16-.76.15-1,.4a1.31,1.31,0,0,0-.18,1.4,2.43,2.43,0,0,1,.2,1.46,3.2,3.2,0,0,0-.17.43,1.23,1.23,0,0,0,.21.79,5.76,5.76,0,0,0,.3-.61.52.52,0,0,1,.56-.3c.21.06.26.3.3.51s.17.43.38.45a.4.4,0,0,0,.38-.26c.24-.47,0-1.09.2-1.56.13-.28.41-.46.53-.74s.07-.47.14-.7.3-.44.53-.34l.2.17a.9.9,0,0,0,1.11.08,2,2,0,0,1,.41-.3.55.55,0,0,1,.58.16,1.12,1.12,0,0,1,.27.57,1.41,1.41,0,0,0,.31.79.87.87,0,0,0,.3.16.71.71,0,0,0,.81-.1.61.61,0,0,0,.06-.61,4.29,4.29,0,0,0-.31-.55c-.23-.42-.18-1-.41-1.34A4.72,4.72,0,0,0,74.37,162.64Z"/><path class="cls-3" d="M74.85,173.16a.47.47,0,0,1,0,.31.63.63,0,0,1-.13.2,3.61,3.61,0,0,1-1.48.88.51.51,0,0,0-.21.1.41.41,0,0,0,0,.47,1.24,1.24,0,0,1,.21.45c0,.3-.31.52-.59.63a1.62,1.62,0,0,1-1.26,0,1.72,1.72,0,0,1-.67-.64c-1.26-1.7-2-3.72-3.28-5.42a1.31,1.31,0,0,1-.21-.36.41.41,0,0,1,.07-.4c.13-.13.39-.13.46-.3s0-.19,0-.28.3-.23.46-.36.18-.27.31-.34a.5.5,0,0,1,.43.08,4.86,4.86,0,0,1,1.4,1.49,22.22,22.22,0,0,0,2.08,2.36,1.57,1.57,0,0,1,.25-1c.24-.12.68.26.85.4A3.64,3.64,0,0,1,74.85,173.16Z"/><rect class="cls-4" x="51.24" y="178.16" width="25.01" height="25.01" transform="translate(-40.66 18.86) rotate(-12.8)"/><rect class="cls-8" x="51.7" y="177.43" width="25.01" height="25.01" transform="translate(-40.48 18.94) rotate(-12.8)"/><path class="cls-3" d="M71.31,187.77a6.89,6.89,0,0,0-8.24-5.18l-.51.14,1.64,7.21,7.21-1.64C71.38,188.13,71.35,188,71.31,187.77Z"/><path class="cls-3" d="M70.61,189.56,63.4,191.2,61.76,184a6.88,6.88,0,1,0,8.84,5.57Z"/><path class="cls-25" d="M59.62,188.89a7.45,7.45,0,0,1,1,.63,1.74,1.74,0,0,1,.59,1,.47.47,0,0,1,0,.33.25.25,0,0,1-.27.16.42.42,0,0,1-.17-.1,7.19,7.19,0,0,0-.61-.41.26.26,0,0,0-.25-.05.24.24,0,0,0-.08.09.66.66,0,0,0-.13.36.75.75,0,0,0,.36.55,1.6,1.6,0,0,1,.5.47.29.29,0,0,1,0,.18.27.27,0,0,1-.09.12,1.62,1.62,0,0,1-1.33.4c-.3-.05-.61-.19-.93-.23a1.75,1.75,0,0,1-.4,0,.73.73,0,0,1-.44-.42,2.11,2.11,0,0,1-.16-.61,7.1,7.1,0,0,1,0-2.39.35.35,0,0,1,.06-.14.27.27,0,0,1,.13-.07,3.37,3.37,0,0,1,1.3-.39,1,1,0,0,1,.38.21C59.11,188.56,59.59,188.79,59.62,188.89Z"/><path class="cls-2" d="M59.66,188.54c-.07-.35.17-1.29-.53-1.19-.09-.38.39-.73.2-1.1-.06-.13-.19-.21-.24-.34-.13-.37.51-.74.31-1.08-.08-.13-.25-.18-.31-.3-.15-.31.41-.6.34-.94,0-.12-.11-.21-.14-.33a1.13,1.13,0,0,1,.11-.41c.11-.36-.09-.84.2-1.08-.21.07-.36-.24-.31-.45a1.54,1.54,0,0,0,.15-.65,1.05,1.05,0,0,1-.06-.24c0-.22.35-.3.36-.54a1.55,1.55,0,0,0-.05-.23.44.44,0,0,1,.28-.39,1.68,1.68,0,0,0,.42-.27c.08-.1.17-.26.3-.21s.08.05.12.08.39,0,.53-.15a2.21,2.21,0,0,0,.48-1.66c0-.59-.16-1.18-.16-1.77a4.93,4.93,0,0,1,0-.55,2.35,2.35,0,0,0,.13-.57c0-.34-.68.05-.93.14a4.09,4.09,0,0,0-.71.3q-.36.24-.69.51c-.93.69-2.16,1-2.82,2-.22.3-.37.69-.7.89a4.73,4.73,0,0,0-.45.23c-.36.28-.31.82-.43,1.24a2.42,2.42,0,0,0-.1.36,1.39,1.39,0,0,0,0,.41l.2,1a37.15,37.15,0,0,0,1.22,5,4.38,4.38,0,0,1,.35,1.64c0,.15,0,.3,0,.45a2.39,2.39,0,0,0,.06.53l.12.64a.26.26,0,0,0,.07.15.28.28,0,0,0,.18,0c.88-.29,1.67-1,2.58-.89"/><path class="cls-25" d="M75.74,182.13a.34.34,0,0,1,.12.06.74.74,0,0,1,.2.85.16.16,0,0,0,0,.09.2.2,0,0,0,.06.14.47.47,0,0,1,0,.54c0,.07-.13.12-.16.2s.1.27.11.41-.18.33-.36.4a.47.47,0,0,1-.43,0,.36.36,0,0,1-.09-.37,1,1,0,0,1,.22-.34.43.43,0,0,1-.49-.29.62.62,0,0,1,.12-.57.21.21,0,0,0,.07-.13c0-.07-.07-.12-.12-.15-.25-.16-.54-.64-.17-.84a1,1,0,0,1,.41-.08c.11,0,.12.07.21.1S75.64,182.11,75.74,182.13Z"/><path class="cls-4" d="M68.35,168.61a.71.71,0,0,1,.59.15,1.51,1.51,0,0,1,.38.66,6.41,6.41,0,0,0,1.36,2.08"/><path class="cls-4" d="M67.74,169.36a.82.82,0,0,1,.79.26,2.43,2.43,0,0,1,.34.66,4,4,0,0,0,1,1.33"/></g></g></svg>