<svg xmlns="http://www.w3.org/2000/svg" xmlns:xlink="http://www.w3.org/1999/xlink" viewBox="0 0 222.31 227.46"><defs><style>.cls-1{fill:url(#Degradado_sin_nombre_2);}.cls-2{fill:url(#Degradado_sin_nombre_9);}.cls-3{fill:#efeeee;}.cls-4{fill:#f7d383;}.cls-5{fill:#bdbdbc;}.cls-6{fill:#f5f5f5;}.cls-7{fill:#85c69e;}.cls-12,.cls-13,.cls-18,.cls-8{fill:#fff;}.cls-9{fill:#010101;opacity:0.2;isolation:isolate;}.cls-10{fill:#e0e0e0;}.cls-11{fill:url(#Degradado_sin_nombre_13);}.cls-12,.cls-13,.cls-18{stroke:#fff;}.cls-12{stroke-miterlimit:10;}.cls-13{stroke-miterlimit:10;}.cls-14{fill:url(#Degradado_sin_nombre_2-2);}.cls-15{fill:url(#Degradado_sin_nombre_2-3);}.cls-16{fill:url(#Degradado_sin_nombre_9-2);}.cls-17{fill:url(#Degradado_sin_nombre_13-2);}.cls-18{stroke-miterlimit:10;}.cls-19{fill:url(#Degradado_sin_nombre_2-4);}.cls-20{fill:url(#Degradado_sin_nombre_9-3);}.cls-21{fill:url(#Degradado_sin_nombre_13-3);}.cls-22{fill:url(#Degradado_sin_nombre_2-5);}.cls-23{fill:url(#Degradado_sin_nombre_2-6);}.cls-24{fill:url(#Degradado_sin_nombre_13-4);}</style><linearGradient id="Degradado_sin_nombre_2" x1="976.42" y1="5353.33" x2="976.42" y2="5483.69" gradientTransform="matrix(1, 0, 0, -1, -908.52, 5494.27)" gradientUnits="userSpaceOnUse"><stop offset="0" stop-color="#808181" stop-opacity="0.25"/><stop offset="0.54" stop-color="#808181" stop-opacity="0.12"/><stop offset="1" stop-color="#808181" stop-opacity="0.1"/></linearGradient><linearGradient id="Degradado_sin_nombre_9" x1="963.25" y1="5427.6" x2="963.25" y2="5477.29" gradientTransform="matrix(1, 0, 0, -1, -908.75, 5505.28)" gradientUnits="userSpaceOnUse"><stop offset="0" stop-color="#b4b4b4" stop-opacity="0.25"/><stop offset="0.54" stop-color="#b4b4b4" stop-opacity="0.1"/><stop offset="1" stop-color="#b4b4b4" stop-opacity="0.05"/></linearGradient><linearGradient id="Degradado_sin_nombre_13" x1="2027.36" y1="466.54" x2="2028.42" y2="441.36" gradientTransform="matrix(-0.96, 0.28, 0.28, 0.96, 1844.4, -941.96)" gradientUnits="userSpaceOnUse"><stop offset="0" stop-color="#010101" stop-opacity="0.12"/><stop offset="0.55" stop-color="#010101" stop-opacity="0.09"/><stop offset="1" stop-color="#010101" stop-opacity="0.02"/></linearGradient><linearGradient id="Degradado_sin_nombre_2-2" x1="192.3" y1="5203.79" x2="192.3" y2="5334.41" gradientTransform="matrix(1, 0, 0, -1, 0, 5421.53)" xlink:href="#Degradado_sin_nombre_2"/><linearGradient id="Degradado_sin_nombre_2-3" x1="635.19" y1="5280.15" x2="635.19" y2="5410.51" gradientTransform="matrix(1, 0, 0, -1, -477.28, 5461.88)" xlink:href="#Degradado_sin_nombre_2"/><linearGradient id="Degradado_sin_nombre_9-2" x1="635.18" y1="5360.95" x2="635.18" y2="5410.64" gradientTransform="matrix(1, 0, 0, -1, -481.54, 5462.11)" xlink:href="#Degradado_sin_nombre_9"/><linearGradient id="Degradado_sin_nombre_13-2" x1="2366.15" y1="532.31" x2="2367.21" y2="507.13" gradientTransform="matrix(-0.99, 0.12, 0.12, 0.99, 2412.02, -714.57)" xlink:href="#Degradado_sin_nombre_13"/><linearGradient id="Degradado_sin_nombre_2-4" x1="116.74" y1="5291.05" x2="116.74" y2="5421.41" gradientTransform="matrix(1, 0, 0, -1, 0, 5421.53)" xlink:href="#Degradado_sin_nombre_2"/><linearGradient id="Degradado_sin_nombre_9-3" x1="116.74" y1="5371.84" x2="116.74" y2="5421.53" gradientTransform="matrix(1, 0, 0, -1, 0, 5421.53)" xlink:href="#Degradado_sin_nombre_9"/><linearGradient id="Degradado_sin_nombre_13-3" x1="2655.47" y1="598.23" x2="2656.52" y2="573.06" gradientTransform="matrix(-1, 0.01, 0.01, 1, 2735.76, -588.1)" xlink:href="#Degradado_sin_nombre_13"/><linearGradient id="Degradado_sin_nombre_2-5" x1="100.24" y1="5194.07" x2="100.24" y2="5343.82" gradientTransform="matrix(1, 0, 0, -1, 0, 5421.53)" xlink:href="#Degradado_sin_nombre_2"/><linearGradient id="Degradado_sin_nombre_2-6" x1="100.4" y1="5215.75" x2="100.4" y2="5307.82" gradientTransform="matrix(1, 0, 0, -1, 0, 5421.53)" xlink:href="#Degradado_sin_nombre_2"/><linearGradient id="Degradado_sin_nombre_13-4" x1="2641.24" y1="733.96" x2="2643.23" y2="686.46" gradientTransform="matrix(-1, 0.01, 0.01, 1, 2735.76, -588.1)" xlink:href="#Degradado_sin_nombre_13"/></defs><g id="Capa_2" data-name="Capa 2"><g id="Capa_1-2" data-name="Capa 1"><rect class="cls-1" x="15.77" y="25.68" width="98.88" height="130" transform="translate(-22.11 21.04) rotate(-15.71)"/><rect class="cls-2" x="4.81" y="27.99" width="99.38" height="49.69" transform="translate(-12.05 16.33) rotate(-15.37)"/><rect class="cls-3" x="16.78" y="27.69" width="96.62" height="127.33" transform="translate(-21.89 20.52) rotate(-15.37)"/><rect class="cls-4" x="6.19" y="28.98" width="96.84" height="48.53" transform="translate(-12.16 16.38) rotate(-15.37)"/><rect class="cls-5" x="37.42" y="93.77" width="26.27" height="2" transform="translate(-23.31 16.79) rotate(-15.37)"/><rect class="cls-6" x="39.55" y="101.5" width="26.27" height="2" transform="translate(-25.28 17.63) rotate(-15.37)"/><rect class="cls-7" x="37.73" y="92.03" width="68.57" height="2" transform="translate(-22.08 22.41) rotate(-15.37)"/><rect class="cls-8" x="42.7" y="46.6" width="26.27" height="2" transform="translate(-10.62 16.5) rotate(-15.37)"/><rect class="cls-8" x="43.59" y="48.77" width="42.3" height="2" transform="translate(-10.88 18.94) rotate(-15.37)"/><rect class="cls-9" x="53.17" y="54.35" width="26.27" height="2.23" rx="0.94" transform="translate(-12.33 19.56) rotate(-15.37)"/><circle class="cls-7" cx="27.41" cy="102.52" r="4.68"/><rect class="cls-5" x="42.56" y="112.44" width="26.27" height="2" transform="translate(-28.08 18.82) rotate(-15.37)"/><rect class="cls-6" x="44.68" y="120.17" width="26.27" height="2" transform="translate(-30.05 19.66) rotate(-15.37)"/><rect class="cls-10" x="42.86" y="110.7" width="68.57" height="2" transform="translate(-26.85 24.44) rotate(-15.37)"/><circle class="cls-10" cx="32.54" cy="121.19" r="4.68"/><rect class="cls-5" x="47.69" y="131.12" width="26.27" height="2" transform="translate(-32.84 20.85) rotate(-15.37)"/><rect class="cls-6" x="49.82" y="138.84" width="26.27" height="2" transform="translate(-34.81 21.69) rotate(-15.37)"/><rect class="cls-10" x="48" y="129.38" width="68.57" height="2" transform="translate(-31.61 26.47) rotate(-15.37)"/><circle class="cls-10" cx="37.68" cy="139.87" r="4.68" transform="translate(-35.73 14.99) rotate(-15.37)"/><path class="cls-11" d="M12,64.09A12.89,12.89,0,1,0,25.19,47.65l.91,3.19a4.38,4.38,0,0,1-3,5.41h0a4.39,4.39,0,0,1-5.4-3l-.91-3.19A12.9,12.9,0,0,0,12,64.09Z"/><path class="cls-4" d="M36.47,55.94A12.89,12.89,0,1,0,23.05,72.21L22.17,69a4.37,4.37,0,0,1,3-5.36h0a4.39,4.39,0,0,1,5.37,3.05l.88,3.2A12.91,12.91,0,0,0,36.47,55.94Z"/><circle class="cls-12" cx="23.57" cy="57.66" r="4.95"/><path class="cls-13" d="M25.21,63.65h0a4.36,4.36,0,0,0-3,5.36l.88,3.2a12.91,12.91,0,0,0,8.41-2.31l-.88-3.2A4.37,4.37,0,0,0,25.21,63.65Z"/><path class="cls-13" d="M18.68,58.71a4.82,4.82,0,0,1-1.17-2.26A3.33,3.33,0,0,1,18,54a4.57,4.57,0,0,1,2.31-1.57,27.52,27.52,0,0,0,2.68-1,6,6,0,0,0,3-3.48,8.23,8.23,0,0,1,.56,2.11,2.73,2.73,0,0,1-.61,2c.63-.54.77.27.74.79.48.33,1.37.17,1.57.71a3.72,3.72,0,0,1,.28,1.71c-.08.58.41,1.43-.14,1.63"/><path class="cls-8" d="M26.1,51.92s3.42-.63,2.4,5"/><polygon class="cls-14" points="194.43 217.74 162.29 217.74 162.29 87.12 222.31 87.12 194.43 217.74"/><polygon class="cls-5" points="192.83 217.74 161.32 217.74 161.32 87.12 220.15 87.12 192.83 217.74"/><rect class="cls-15" x="108.33" y="51.37" width="99.15" height="130.36" transform="translate(-11.4 17.29) rotate(-6.05)"/><rect class="cls-16" x="103.96" y="51.47" width="99.38" height="49.69" transform="translate(-7.19 16.62) rotate(-6.05)"/><rect class="cls-6" x="109.55" y="52.38" width="96.62" height="127.33" transform="translate(-11.35 17.28) rotate(-6.05)"/><rect class="cls-4" x="105.27" y="52.48" width="96.84" height="48.53" transform="translate(-7.23 16.63) rotate(-6.05)"/><rect class="cls-5" x="129.83" y="116.06" width="26.27" height="2" transform="translate(-11.54 15.72) rotate(-6.05)"/><rect class="cls-6" x="130.68" y="124.03" width="26.27" height="2" transform="translate(-12.38 15.85) rotate(-6.05)"/><rect class="cls-7" x="130.14" y="117.82" width="68.57" height="2" transform="translate(-11.61 17.99) rotate(-6.05)"/><rect class="cls-8" x="142.68" y="70.37" width="26.27" height="2" transform="translate(-6.65 16.82) rotate(-6.05)"/><rect class="cls-8" x="143.1" y="73.96" width="42.3" height="2" transform="translate(-6.99 17.73) rotate(-6.05)"/><rect class="cls-9" x="151.73" y="79.71" width="26.27" height="2.23" rx="0.94" transform="translate(-7.6 17.83) rotate(-6.05)"/><circle class="cls-7" cx="118.87" cy="120.96" r="4.68" transform="translate(-12.09 13.2) rotate(-6.05)"/><rect class="cls-5" x="131.87" y="135.32" width="26.27" height="2" transform="translate(-13.56 16.04) rotate(-6.05)"/><rect class="cls-6" x="132.72" y="143.29" width="26.27" height="2" transform="translate(-14.4 16.18) rotate(-6.05)"/><rect class="cls-10" x="132.18" y="137.07" width="68.57" height="2" transform="translate(-13.63 18.31) rotate(-6.05)"/><circle class="cls-10" cx="120.91" cy="140.22" r="4.68"/><rect class="cls-5" x="133.91" y="154.58" width="26.27" height="2" transform="translate(-15.58 16.36) rotate(-6.05)"/><rect class="cls-6" x="134.76" y="162.55" width="26.27" height="2" transform="translate(-16.41 16.5) rotate(-6.05)"/><rect class="cls-10" x="134.22" y="156.33" width="68.57" height="2" transform="translate(-15.64 18.64) rotate(-6.05)"/><circle class="cls-10" cx="122.95" cy="159.47" r="4.68"/><path class="cls-17" d="M109.84,80.54a12.89,12.89,0,1,0,15.71-14.06l.39,3.3a4.37,4.37,0,0,1-3.81,4.83h0a4.38,4.38,0,0,1-4.85-3.82l-.39-3.3A12.89,12.89,0,0,0,109.84,80.54Z"/><path class="cls-4" d="M135.34,76.47a12.89,12.89,0,1,0-15.88,13.89l-.35-3.3A4.38,4.38,0,0,1,123,82.25h0a4.39,4.39,0,0,1,4.8,3.89l.35,3.3A12.91,12.91,0,0,0,135.34,76.47Z"/><circle class="cls-18" cx="122.34" cy="76.07" r="4.95"/><path class="cls-13" d="M123,82.25h0a4.38,4.38,0,0,0-3.88,4.81l.35,3.3a13,13,0,0,0,8.68-.92l-.35-3.3A4.39,4.39,0,0,0,123,82.25Z"/><path class="cls-13" d="M117.34,76.32a4.86,4.86,0,0,1-.79-2.42,3.35,3.35,0,0,1,.86-2.36,4.6,4.6,0,0,1,2.53-1.19,19.16,19.16,0,0,0,2.8-.52,5.9,5.9,0,0,0,3.49-3,7.92,7.92,0,0,1,.21,2.17,2.66,2.66,0,0,1-.93,1.91c.71-.42.72.4.61.9.42.41,1.33.39,1.44,1a3.89,3.89,0,0,1,0,1.73c-.18.56.17,1.47-.41,1.57"/><path class="cls-8" d="M125.77,70.83s3.47-.07,1.56,5.29"/><rect class="cls-19" x="67.16" y="0.12" width="99.15" height="130.36"/><rect class="cls-20" x="67.05" width="99.38" height="49.69"/><rect class="cls-6" x="68.43" y="1.13" width="96.62" height="127.33"/><rect class="cls-4" x="68.32" y="1.01" width="96.84" height="48.53"/><rect class="cls-5" x="88.69" y="63.23" width="26.27" height="2"/><rect class="cls-6" x="88.69" y="71.25" width="26.27" height="2"/><rect class="cls-7" x="88.69" y="67.24" width="68.57" height="2"/><rect class="cls-8" x="106.27" y="19.16" width="26.27" height="2"/><rect class="cls-8" x="106.27" y="23.61" width="42.3" height="2"/><rect class="cls-9" x="114.29" y="29.4" width="26.27" height="2.23" rx="0.94"/><circle class="cls-7" cx="77.45" cy="65.57" r="4.68"/><rect class="cls-5" x="88.69" y="82.6" width="26.27" height="2"/><rect class="cls-6" x="88.69" y="90.61" width="26.27" height="2"/><rect class="cls-10" x="88.69" y="86.61" width="68.57" height="2"/><circle class="cls-10" cx="77.45" cy="84.94" r="4.68"/><rect class="cls-5" x="88.69" y="101.97" width="26.27" height="2"/><rect class="cls-6" x="88.69" y="109.98" width="26.27" height="2"/><rect class="cls-10" x="88.69" y="105.98" width="68.57" height="2"/><circle class="cls-10" cx="77.45" cy="104.3" r="4.68"/><path class="cls-21" d="M72.74,24.43A12.89,12.89,0,1,0,89.85,12.09l0,3.32a4.38,4.38,0,0,1-4.32,4.43h0a4.39,4.39,0,0,1-4.42-4.31l0-3.32A12.9,12.9,0,0,0,72.74,24.43Z"/><path class="cls-4" d="M98.52,23.07A12.89,12.89,0,1,0,81.26,35.2V31.88a4.37,4.37,0,0,1,4.37-4.36h0A4.36,4.36,0,0,1,90,31.88V35.2A12.88,12.88,0,0,0,98.52,23.07Z"/><circle class="cls-13" cx="85.64" cy="21.3" r="4.95"/><path class="cls-13" d="M85.63,27.52h0a4.37,4.37,0,0,0-4.37,4.36V35.2a13,13,0,0,0,8.73,0V31.88A4.36,4.36,0,0,0,85.63,27.52Z"/><path class="cls-13" d="M80.64,21a4.79,4.79,0,0,1-.53-2.49,3.33,3.33,0,0,1,1.1-2.26,4.66,4.66,0,0,1,2.65-.92,26.74,26.74,0,0,0,2.83-.21,5.92,5.92,0,0,0,3.78-2.57,7.58,7.58,0,0,1,0,2.18,2.67,2.67,0,0,1-1.13,1.8c.76-.34.67.47.51,1,.38.45,1.28.53,1.33,1.11A3.6,3.6,0,0,1,91,20.34c-.23.54,0,1.49-.57,1.53"/><path class="cls-8" d="M89.59,16.45s3.46.3,1,5.43"/><polygon class="cls-22" points="58.1 92.9 36.41 77.71 6.37 77.71 6.37 92.9 6.37 100.34 6.37 227.46 194.11 227.46 194.11 92.9 58.1 92.9"/><polyline class="cls-8" points="7.97 94.44 7.97 101.66 7.97 225.06 192.83 225.06 192.83 94.44 58.91 94.44"/><polyline class="cls-5" points="58.91 94.44 37.55 79.69 7.97 79.69 7.97 94.44"/><rect class="cls-23" x="49.49" y="113.71" width="101.82" height="92.07"/><rect class="cls-8" x="50.88" y="114.38" width="99.51" height="89.72"/><rect class="cls-5" x="81.76" y="181.54" width="39.12" height="3.2"/><rect class="cls-10" x="57.88" y="187.95" width="85.49" height="3.2"/><rect class="cls-10" x="57.88" y="194.36" width="85.49" height="3.2"/><path class="cls-24" d="M76.29,148.69a24.34,24.34,0,1,0,32.31-23.3l.08,6.27a8.27,8.27,0,0,1-8.14,8.34h0a8.25,8.25,0,0,1-8.34-8.14l-.08-6.27A24.33,24.33,0,0,0,76.29,148.69Z"/><path class="cls-5" d="M125,146.13A24.34,24.34,0,1,0,92.39,169v-6.27a8.26,8.26,0,0,1,8.23-8.23h0a8.26,8.26,0,0,1,8.23,8.23V169A24.34,24.34,0,0,0,125,146.13Z"/><rect class="cls-13" x="98.52" y="148.77" width="2.93" height="10.32" rx="1.46"/><circle class="cls-13" cx="100" cy="140.8" r="9.36"/><path class="cls-13" d="M100,152.54h0a8.26,8.26,0,0,0-8.23,8.23V167a24.42,24.42,0,0,0,16.48,0v-6.26A8.26,8.26,0,0,0,100,152.54Z"/></g></g></svg>