<svg xmlns="http://www.w3.org/2000/svg" xmlns:xlink="http://www.w3.org/1999/xlink" viewBox="0 0 422.29 224.73"><defs><style>.cls-1,.cls-3{fill:#f7d383;}.cls-1,.cls-2,.cls-7{opacity:0.1;}.cls-1,.cls-5,.cls-7{isolation:isolate;}.cls-4{fill:#746e8e;}.cls-13,.cls-5,.cls-7{fill:#010101;}.cls-5{opacity:0.2;}.cls-6{fill:#403e56;}.cls-8{fill:#66627d;}.cls-9{fill:#d4deec;}.cls-10{fill:#f7bebe;}.cls-11{fill:url(#Degradado_sin_nombre_2);}.cls-12{fill:#625f80;}.cls-14{fill:none;stroke:#f7d383;stroke-miterlimit:10;stroke-width:2px;}</style><linearGradient id="Degradado_sin_nombre_2" x1="289.59" y1="5026.52" x2="289.59" y2="5179.6" gradientTransform="matrix(1, 0, 0, -1, -79.34, 5250.58)" gradientUnits="userSpaceOnUse"><stop offset="0" stop-color="#808181" stop-opacity="0.25"/><stop offset="0.54" stop-color="#808181" stop-opacity="0.12"/><stop offset="1" stop-color="#808181" stop-opacity="0.1"/></linearGradient></defs><g id="Capa_2" data-name="Capa 2"><g id="Capa_1-2" data-name="Capa 1"><path class="cls-1" d="M389.92,177.7c-.47,1-.94,2-1.4,3-.73,1.54-1.46,3-2.17,4.51-.31.65-.63,1.3-.94,1.94-3.49,7.12-6.74,13.42-9.51,18.61A29.69,29.69,0,0,1,350,221.45l-61.5.67h-.65l-5.27.06-4.51,0-13.83.15h-.56l-7,.07h-.21l-43.4.47-38.73.41-4.5,0-28,.3h0l-18.15.2h-.19l-57.39.62-17.17.18A35.5,35.5,0,0,1,22.24,213.1,81,81,0,0,1,5.88,185.21c-.52-1.48-1-3-1.46-4.51C-8.07,138.46,7.16,84,34.57,47.5Q36.3,45.22,38.08,43l0,0c8.43-10.35,17.88-19,28-25.14C83.9,7,103.67,3.88,123.12,13a127.74,127.74,0,0,0,46.71,12.39c1.5.1,3,.17,4.5.21,34.16,1.08,66.18-11.23,103.77-19.17,1.5-.32,3-.63,4.51-.93C309.43.2,339.18-2.61,374.56,3.31A77.49,77.49,0,0,1,385.41,5.9c1.56.51,3.07,1,4.51,1.62,16.89,6.87,26.1,19.57,30,35.47.37,1.48.69,3,1,4.51C427.83,85.76,407.51,140,389.92,177.7Z"/><g class="cls-2"><path class="cls-3" d="M66.06,17.87V224.54l-17.17.19a35.66,35.66,0,0,1-10.81-1.55V43h0C46.54,32.65,56,24,66.06,17.87Z"/><path class="cls-3" d="M420.91,47.5H34.57Q36.3,45.22,38.08,43v0H420C420.32,44.48,420.64,46,420.91,47.5Z"/><path class="cls-3" d="M389.92,7.53V180.7h-1.4c-.73,1.53-1.46,3-2.17,4.51-.31.65-.63,1.29-.94,1.93V5.89C387,6.39,388.48,6.94,389.92,7.53Z"/><path class="cls-3" d="M282.61,5.53V222.19l-4.51.05V6.45Z"/><path class="cls-3" d="M174.33,25.63V223.37l-4.5,0v-198C171.33,25.52,172.84,25.57,174.33,25.63Z"/><path class="cls-3" d="M388.52,180.7c-.73,1.54-1.46,3-2.17,4.51H5.88c-.52-1.48-1-3-1.46-4.51Z"/></g><polygon class="cls-4" points="350.02 216.41 350.02 221.68 288.41 222.25 287.76 222.26 264.34 222.47 263.78 222.48 256.66 222.54 256.45 222.54 213.07 222.94 141.85 223.6 141.79 223.6 123.68 223.78 123.48 223.78 43.02 224.52 43.02 218.44 61.94 207.08 99.9 206.76 100.71 206.76 100.98 206.75 101.79 206.74 120.02 206.59 120.83 206.59 121.09 206.58 121.9 206.58 127.75 206.53 127.9 206.53 142.32 206.41 142.44 206.41 254.94 205.46 257.69 205.44 257.96 205.44 260.07 205.42 275.33 205.29 276.15 205.28 276.9 205.27 277.29 205.27 282.03 205.23 282.98 205.22 284.24 205.21 288.19 205.18 294.46 205.12 295.27 205.12 296.69 205.11 296.95 205.11 327.25 204.85 350.02 216.41"/><polygon class="cls-5" points="349.99 216.39 349.99 221.67 288.38 222.23 287.73 222.25 264.31 222.46 263.75 222.47 256.63 222.53 256.42 222.53 213.04 222.93 141.82 223.59 141.76 223.59 123.65 223.76 123.45 223.77 42.99 224.5 42.99 218.42 61.91 207.07 99.87 206.75 100.68 206.75 100.95 206.74 101.76 206.73 119.99 206.58 120.8 206.58 121.06 206.57 121.87 206.57 127.72 206.52 127.87 206.51 142.29 206.39 142.41 206.39 254.91 205.44 257.66 205.42 257.93 205.42 260.04 205.4 275.3 205.28 276.12 205.27 276.87 205.26 277.25 205.26 282 205.22 282.94 205.21 284.2 205.2 288.16 205.16 294.43 205.11 295.24 205.1 296.66 205.09 296.92 205.09 327.22 204.84 349.99 216.39"/><path class="cls-6" d="M120.08,196.13v9.94a2.47,2.47,0,0,1-1.42,2.24,2.39,2.39,0,0,1-1,.25l-14.16.3a2.41,2.41,0,0,1-1.09-.24,2.46,2.46,0,0,1-1.45-2.25V196.13Z"/><path class="cls-7" d="M120.08,196.13v9.94a2.47,2.47,0,0,1-1.42,2.24,2.39,2.39,0,0,1-1,.25l-14.16.3a2.41,2.41,0,0,1-1.09-.24,2.46,2.46,0,0,1-1.45-2.25V196.13Z"/><path class="cls-6" d="M120.89,196.13v9.94a2.47,2.47,0,0,1-1.42,2.24,2.39,2.39,0,0,1-1,.25l-14.16.3a2.41,2.41,0,0,1-1.09-.24,2.46,2.46,0,0,1-1.45-2.25V196.13Z"/><rect class="cls-6" x="276.15" y="196.13" width="19.13" height="12.77"/><rect class="cls-7" x="276.15" y="196.13" width="19.13" height="12.77"/><rect class="cls-6" x="275.33" y="196.13" width="19.13" height="12.77"/><rect class="cls-7" x="85.81" y="124.25" width="7.71" height="6.93"/><polygon class="cls-7" points="120.89 196.13 120.89 198.15 101.76 198.66 101.76 196.13 120.89 196.13"/><path class="cls-8" d="M154.65,126.66v68.22a1.62,1.62,0,0,1-1.56,1.6l-77.72,2.07h0a1.64,1.64,0,0,1-1.61-1.61V126.66a1.63,1.63,0,0,1,1.61-1.6h77.7A1.62,1.62,0,0,1,154.65,126.66Z"/><path class="cls-7" d="M75.37,125.06v73.49h0a1.64,1.64,0,0,1-1.61-1.61V126.66a1.63,1.63,0,0,1,1.61-1.6Z"/><polygon class="cls-9" points="78.92 129.42 150.9 129.42 150.9 189.54 78.92 191.16 78.92 129.42"/><rect class="cls-7" x="293.18" y="124.25" width="7.71" height="7.06"/><polygon class="cls-7" points="294.46 196.13 294.46 198.73 275.33 198.22 275.33 196.13 294.46 196.13"/><path class="cls-8" d="M319.71,126.66v70.28a1.62,1.62,0,0,1-1.62,1.61h0l-77.74-2.07a1.62,1.62,0,0,1-1.56-1.6V126.66a1.62,1.62,0,0,1,1.6-1.6h77.7A1.62,1.62,0,0,1,319.71,126.66Z"/><path class="cls-7" d="M319.71,126.66v70.28a1.62,1.62,0,0,1-1.62,1.61h0V125.06h0A1.62,1.62,0,0,1,319.71,126.66Z"/><polygon class="cls-9" points="314.54 129.42 242.55 129.42 242.55 189.54 314.54 191.16 314.54 129.42"/><path class="cls-8" d="M236.78,126.66v68.22a1.63,1.63,0,0,1-1.57,1.6l-77.72,2.07h0a1.62,1.62,0,0,1-1.62-1.61V126.66a1.62,1.62,0,0,1,1.6-1.6h77.7A1.63,1.63,0,0,1,236.78,126.66Z"/><polygon class="cls-9" points="161.04 129.42 233.02 129.42 233.02 189.54 161.04 191.16 161.04 129.42"/><polygon class="cls-7" points="350.02 216.41 350.02 221.68 288.41 222.25 287.76 222.26 264.34 222.47 263.78 222.48 256.66 222.54 256.45 222.54 213.07 222.94 141.85 223.6 141.79 223.6 123.68 223.78 123.48 223.78 43.02 224.52 43.02 218.44 125.15 217.9 125.35 217.9 141.97 217.78 142.05 217.78 256.85 217.02 256.97 217.02 257.04 217.02 257.23 217.02 259.17 217.01 259.76 217.01 289.97 216.8 291.75 216.8 292.15 216.79 350.02 216.41"/><circle class="cls-10" cx="197.6" cy="110.36" r="20.82"/><path class="cls-11" d="M123.44,223.92a.48.48,0,0,1,0-.14c.4-1.46,1.12-3.92,1.66-5.88l.2-.71c.59-2.22,1.75-7.42,2.4-10.66.22-1.14.4-2,.44-2.47a67,67,0,0,1,2.68-7c1-2.37,2-5,2.81-7.14a25,25,0,0,0,1.18-4,1.83,1.83,0,0,0,0-.87,6.15,6.15,0,0,1-.19-1.42h0c-.09-2.51.66-6.48,1.82-8.15,1.42-2,2.43-9.6,2.43-9.6s2.1.31,2.43-1.43a2.16,2.16,0,0,0,0-.57,3.4,3.4,0,0,0,0-.45c-.36-2.53,6-5.22,9.53-5.8a7.07,7.07,0,0,1,1.21-.11,11,11,0,0,0,2.54-.59c.38-.11.78-.25,1.22-.4,1.49-.51,3.27-1.17,5.17-1.9,7.12-2.76,15.74-6.49,15.74-6.49.06-.29.13-.56.21-.83a11.22,11.22,0,0,1,6.63-7.68h0v-.81c0-1.4-.06-2.84-.12-4.28,0-.28,0-.56,0-.84v-.45c0-.29,0-.57,0-.85l-.07-.06a6.55,6.55,0,0,1-1.58-1.7,6.2,6.2,0,0,1-.58-1.22,36.29,36.29,0,0,1-1-4.36l-.08-.3a33.13,33.13,0,0,0-1.62-4.29c-.9-2.2-1.59-4.46-2.27-6.75L175,109.57l-.64-2.13c-.12-.4-.25-.81-.34-1.21h0c0-.19-.08-.38-.11-.57h0a4.08,4.08,0,0,1,.1-1.87c.16-.41.34-.82.54-1.22a3.38,3.38,0,0,0,.2-.56h0l0-.13a2.1,2.1,0,0,0,.05-.43,8.34,8.34,0,0,0-.21-1.58s0,0,0,0a.52.52,0,0,1,0-.11,8.3,8.3,0,0,1-.15-1.22,11.58,11.58,0,0,1,1.41-6.31l.07-.15a12.29,12.29,0,0,1,.75-1.13h0a6.26,6.26,0,0,1,.41-.49,1.46,1.46,0,0,1-2-.28,1.29,1.29,0,0,1-.22-.3,1.14,1.14,0,0,1-.1-.19s0-.1-.05-.15a3.33,3.33,0,0,1,.86-2.86,7.55,7.55,0,0,1,2.33-1.91h0a.8.8,0,0,1,.16-.08,6.64,6.64,0,0,1,1.07-.43h0q.33-.1.66-.18l-1.5-.14-.61,0a5.87,5.87,0,0,1,5.27-4.43h.44a4.46,4.46,0,0,1,.63,0,1.8,1.8,0,0,1-1.07-1.75A5.84,5.84,0,0,0,186.64,79h.15c-.07-.44-.11-.88-.14-1.33h0a13.67,13.67,0,0,1,0-1.81,3.42,3.42,0,0,0,2.75.92l-.84-1.18a3.87,3.87,0,0,0,2.66.84l.19,0a2.66,2.66,0,0,0,.49-.1h0l-.21-.3,0,0a4.4,4.4,0,0,1-.4-.85,3.57,3.57,0,0,1-.1-.35h0a3.56,3.56,0,0,1,.18-2.21c1.31,1.09,2.75,2.59,4.47,1.46s1.77-3.21,4.46-3a4.16,4.16,0,0,1,3.41,2.48,2.74,2.74,0,0,1,3.11-.71,2.79,2.79,0,0,1,1.57,2.8,5.63,5.63,0,0,1,3.39-.14,2,2,0,0,1,1.15,2.71l-.06.08c-.5.64-1.6,1-1.48,1.8l.17.13.53.38h0c2.06,1.49,4.08,3.06,6,4.7,1,.85,2.07,1.86,2.14,3.18a3.48,3.48,0,0,1-.09,1h0c-.07.32-.16.63-.23.95a7.75,7.75,0,0,0-.13,2.45h0c0,.24.06.48.1.72.63,3.13,3.13,5.72,3.38,8.92v.22a8.8,8.8,0,0,1,0,1,22,22,0,0,1-1.82,5.68l-.13.34a57.65,57.65,0,0,0-2.84,11.42,40.5,40.5,0,0,1-.81,4.09,10.84,10.84,0,0,1-2.06,4.23,6.57,6.57,0,0,1-1.36,1.22,7.42,7.42,0,0,1-1.08.57v0c.05.25.08.5.13.75s0,.26.07.4h0v0c.34,1.91.73,3.79,1.14,5.58l.2.88c5.11,1.85,5.72,5.63,5.75,7.08a2.81,2.81,0,0,1,0,.58s7.71.2,10.75,2.43a7.89,7.89,0,0,0,1.83.93,31.27,31.27,0,0,0,3.75,1.17c.65.18,1.34.34,2,.5,1.22.28,2.51.56,3.75.81,3.32.67,6.45,1.22,8,1.63,3.79.95,12.44,9.25,12.44,9.25s1,8.37,2,9.59a36.55,36.55,0,0,1,2.84,5.51l6.71,11.93,2.84,5h1.82a3,3,0,0,1,1.3.85c.49.43,1,1,1.49,1.45l.78.83.49.54s2.94.08,3.74,2.41a18.41,18.41,0,0,1,7.42,1,6.35,6.35,0,0,1,.81.44,3.52,3.52,0,0,1,1.67,2.29,4,4,0,0,1,.08.59v.69c-.15,3.07-2.15,5.62-4,7.34l.13.23s-.06.15-.18.41l-.11.26h0c-.24.51-.62,1.28-1.12,2.17a25.86,25.86,0,0,1-3.88,5.34l-.12.13-23.42.21-.07-.08L259.76,217l-2.26-2.69-.07-.09-.06.65-.22,2.15-.53,5.19,0,.26v.07l-.06.6.05-.6h-.12l-43.39.41-71.23.78v.34h-.05v-.34l-18.15.2Z"/><path class="cls-10" d="M218.42,152.94s-40.35,4.87-36.5,0c1.4-1.76,1.79-7,1.71-12.91,0-1.81-.09-3.68-.18-5.54-.45-8.92-1.53-17.64-1.53-17.64s35.29-16.63,31.23-3.45c-1.62,5.33-1.09,12.8.14,19.82.36,2.05.78,4.06,1.22,6A141.78,141.78,0,0,0,218.42,152.94Z"/><path class="cls-7" d="M218.42,152.94s-40.35,4.87-36.5,0c1.4-1.76,1.79-7,1.71-12.91,6.15-2.63,14-.67,14-.67,8.24-1.65,13.52-1.33,16.9-.17A141.78,141.78,0,0,0,218.42,152.94Z"/><path class="cls-3" d="M141.83,224.06v-.34l71.22-.77,43.4-.41h.12l0,.6.06-.6h.07v-.07l.56-5.45.21-2.07.06-.64.06-.54,2.51-8.36,2.5-8.34,2.11-7,3.22-10.74a35.64,35.64,0,0,0-2.84-5.48c-1-1.21-2-9.53-2-9.53s-8.66-8.24-12.44-9.19c-1.59-.41-4.72-.94-8-1.62-1.25-.25-2.53-.52-3.76-.81l-2-.49A37,37,0,0,1,233,151a8.75,8.75,0,0,1-1.83-.93c-3-2.19-10.45-2.44-10.74-2.44h0v-.06a4.34,4.34,0,0,0,0-.51,4,4,0,0,0,0-.57.49.49,0,0,0,0-.2c0-.15,0-.3-.08-.46s0-.15-.05-.22a7,7,0,0,0-.51-1.41,1.24,1.24,0,0,0-.1-.2A7,7,0,0,0,219,143l-.17-.21a8,8,0,0,0-1.1-1.07c-.11-.09-.22-.18-.34-.26l-.21-.14-.36-.24-.34-.19a9.15,9.15,0,0,0-.94-.47l-.34-.14-.44-.17h0l-.31-.12-.71-.22-.38-.1-.4-.09-.41-.08c-.4-.09-.84-.16-1.29-.22l-.47,0-.47-.05-.49,0-.7,0-.81,0a50.74,50.74,0,0,0-10.64,1.13,29.28,29.28,0,0,0-7.41-.68h-.35l-.4,0h-.26l-.53,0a4.6,4.6,0,0,0-.52.06l-.54.08-.26,0-.81.15-.27.06c-.35.08-.71.17-1.06.28l-.52.16-.26.09-.26.1-.25.1-.31.12a4.54,4.54,0,0,0-.45.21,1.15,1.15,0,0,0-.25.12l-.25.12a12,12,0,0,0-2.52,1.78l-.2.2-.21.21-.19.21a9.19,9.19,0,0,0-.74.91l-.19.26a10.91,10.91,0,0,0-.7,1.19l-.15.29a13.72,13.72,0,0,0-.81,2.13c-.07.27-.14.54-.2.81S168.16,153,161,155.75c-1.89.73-3.68,1.39-5.17,1.89l-1.22.41a11.05,11.05,0,0,1-2.53.58,8.27,8.27,0,0,0-1.22.12c-3.27.53-8.88,2.83-9.49,5.15a1.38,1.38,0,0,0,0,.57v0c.4,2.84-2.44,2.44-2.44,2.44s-1,7.5-2.43,9.53c-1,1.46-1.73,4.71-1.82,7.17h0a7.91,7.91,0,0,0,.18,2.28V186c.16.54-.23,2-.89,3.93-.72,2.09-1.76,4.68-2.77,7.13-1.51,3.7-2.94,7.06-3,7.8,0,.33-.14.92-.29,1.67-.59,3.09-1.9,9-2.55,11.36-.49,1.78-1.19,4.21-1.67,5.88a.57.57,0,0,1,0,.14l18.18-.18v.34h0Z"/><path class="cls-7" d="M148.47,176.26s23.11,12,31.43,10.55Z"/><path class="cls-7" d="M195.51,171.39s22.51,7.3,30,8.32S195.51,171.39,195.51,171.39Z"/><path class="cls-7" d="M220.48,147.91c-11.76,2.16-33.91,1.69-43.48,1.37,3.51-12.58,20.62-8.3,20.62-8.3C218.79,136.75,220.41,145.52,220.48,147.91Z"/><path class="cls-3" d="M220.48,147.09c-11.76,2.17-33.91,1.7-43.48,1.38,3.51-12.58,20.62-8.3,20.62-8.3C218.79,135.94,220.41,144.71,220.48,147.09Z"/><path class="cls-10" d="M282.91,202.52s13.85-2.13,14.12,3.95S290,216.81,290,216.81Z"/><path class="cls-7" d="M213.29,133.22a16.73,16.73,0,0,1-1.82.71,65,65,0,0,1-13.38,3.58c-4.61.55-9.44.07-13.45-2.23a12.09,12.09,0,0,1-1.22-.79c-.44-8.92-1.52-17.64-1.52-17.64s35.28-16.63,31.23-3.45C211.51,118.73,212.06,126.2,213.29,133.22Z"/><path class="cls-6" d="M191.89,77.82a3.82,3.82,0,0,1-3.37-.71l.84,1.18a3.45,3.45,0,0,1-2.75-.92,14.43,14.43,0,0,0,.13,3.15,5.93,5.93,0,0,1-3.87-1.22,1.78,1.78,0,0,0,1.07,1.75,5.82,5.82,0,0,0-6.33,4.34l2.12.19a7.51,7.51,0,0,0-4.24,2.59,3.29,3.29,0,0,0-.86,2.84c.29,1,1.66,1.62,2.4.91a11.38,11.38,0,0,0-2.47,9.25,5.88,5.88,0,0,1,.19,2.13,19.37,19.37,0,0,1-.77,1.9,6,6,0,0,0,.34,3.65l1.9,6.25c.69,2.26,1.38,4.53,2.28,6.71a32.73,32.73,0,0,1,1.62,4.26c.51,2,.53,4.12,1.62,5.83a8.17,8.17,0,0,0,2.91,2.57c4,2.3,8.86,2.78,13.45,2.23a64.81,64.81,0,0,0,13.36-3.58,12.1,12.1,0,0,0,2.78-1.22c3-2,3.69-6,4.26-9.59a55.11,55.11,0,0,1,2.95-11.68c.89-2.22,2-4.48,1.84-6.87-.25-3.17-2.76-5.73-3.38-8.85a7.6,7.6,0,0,1,0-3.15,7.27,7.27,0,0,0,.32-1.9c-.07-1.31-1.14-2.32-2.14-3.16q-3.28-2.73-6.76-5.16c-.12-.81,1-1.16,1.48-1.8.71-.91,0-2.34-1.09-2.76a5.55,5.55,0,0,0-3.39.13A2.67,2.67,0,0,0,203.68,75a4.13,4.13,0,0,0-3.42-2.47c-2.69-.21-2.74,1.85-4.46,3s-3.14-.36-4.46-1.45A3.78,3.78,0,0,0,191.89,77.82Z"/><path class="cls-3" d="M293.18,214.69s-.36.86-1,2.1a27.42,27.42,0,0,1-3.65,5.34l-.11.12h-.65l-23.42.22h-.56l-.07-.09L259.15,217l-1.71-2-.07-.08-.15-.17-.08-.1-.1-.13-3.33-3.95,1.21-5.06,2.08-8.55.05-.2.4-1.62.29-1.22,1-4L262,176.27l5.88,3,6.2,10.95,3.33,5.88h1.82c.35,0,1.14.66,1.93,1.43.29.27.57.56.81.81.73.75,1.3,1.39,1.3,1.39s2.95.06,3.75,2.39c0,.11.07.23.1.34a15.58,15.58,0,0,0,1,2.66c.52,1.14,1.18,2.44,1.84,3.73,1.24,2.37,2.5,4.63,3,5.45l0,.1Z"/><path class="cls-7" d="M258.34,196.38l0,.58v0l-.07.93-.54,7.51-.65,9-.19,2.55-.4,5.45v.07l-43.4.4-71.21.77v.34h-.05v-.45l.18-5.82.35-11.38.3-9.65,0-1a4.27,4.27,0,0,1,4.4-4.14h.23c1.91.16,4.4.36,7.37.57l1.22.09c17.17,1.2,48.89,2.74,80.91.81.67,0,1.35-.07,2-.12,5-.31,9.93-.71,14.84-1.22a4.28,4.28,0,0,1,4.69,3.8,3.86,3.86,0,0,1,0,.76Z"/><path class="cls-6" d="M141.83,224.06v-.34l71.22-.77,43.4-.41h.12v-.07L257,217l.17-2.43.66-9.17.53-7.26V198a4.2,4.2,0,0,0,0-1,0,0,0,0,0,0,0,4.2,4.2,0,0,0-4.63-3.5c-4.91.5-9.87.9-14.83,1.21l-2,.13c-32,1.9-63.74.36-80.91-.81l-1.21-.09c-3-.21-5.46-.41-7.38-.57a4.27,4.27,0,0,0-4.56,3.46,4.93,4.93,0,0,0-.07.66l-.27,9L142,217.8l-.18,5.83v.43Z"/><path class="cls-12" d="M258.46,199.22l-.49,6.22-.75,9.26L257,217l-.41,5.2,0,.26v.07h0l-.06.6,0-.6h-.12l-43.39.4-71.24.77v-.11l.2-5.82.41-11.38.26-7.57a2.58,2.58,0,0,1,1.24-2.13,2.5,2.5,0,0,1,1.53-.36l3.12.24c2,.14,4.43.31,7.28.49,5.27.33,11.88.69,19.46,1,21.09.81,49.56,1.09,76.6-1.28l3.71-.34a2.65,2.65,0,0,1,1.76.48,2.55,2.55,0,0,1,.81,1,1.86,1.86,0,0,1,.1.25A2.5,2.5,0,0,1,258.46,199.22Z"/><path class="cls-7" d="M120.89,204.77v1.3a2.47,2.47,0,0,1-1.42,2.24l-16.26.31a2.46,2.46,0,0,1-1.45-2.25v-1.22Z"/><polygon class="cls-6" points="121.09 209.07 99.9 209.48 99.9 205.96 121.09 205.56 121.09 209.07"/><polygon class="cls-7" points="121.09 209.07 99.9 209.48 99.9 205.96 121.09 205.56 121.09 209.07"/><polygon class="cls-6" points="121.9 209.07 100.71 209.48 100.71 205.96 121.9 205.56 121.9 209.07"/><g class="cls-2"><path class="cls-13" d="M192.06,76.49a3.93,3.93,0,0,1-.77-1.76,4,4,0,0,0,.17,1.87A4.21,4.21,0,0,0,192.06,76.49Z"/><path class="cls-13" d="M186.91,79.19a12.66,12.66,0,0,1-.15-1.51v1.51Z"/><path class="cls-13" d="M220,92.72a6.68,6.68,0,0,1,.15-1.08,7.13,7.13,0,0,0,.32-1.9,3.18,3.18,0,0,0-.06-.43c-.07.38-.18.75-.26,1.12A8,8,0,0,0,220,92.72Z"/><path class="cls-13" d="M211.53,80.19l.44.32a8.09,8.09,0,0,0,1-.9,1.48,1.48,0,0,0,.15-1.48,1.35,1.35,0,0,1-.15.26C212.51,79,211.41,79.38,211.53,80.19Z"/><path class="cls-13" d="M178.2,84.09a4.85,4.85,0,0,0-.35.92,7.31,7.31,0,0,1,2-.76Z"/><path class="cls-13" d="M183.79,79.68a7.66,7.66,0,0,1-.76-.5,1.56,1.56,0,0,0,0,.48A3.47,3.47,0,0,1,183.79,79.68Z"/><path class="cls-13" d="M223.44,103.57a20.77,20.77,0,0,1-1.82,5.73,54.38,54.38,0,0,0-3,11.68c-.56,3.57-1.21,7.61-4.25,9.59a12.22,12.22,0,0,1-2.77,1.22,65.72,65.72,0,0,1-13.39,3.58c-4.6.55-9.43.06-13.45-2.23a8.17,8.17,0,0,1-2.91-2.57c-1.08-1.71-1.1-3.86-1.62-5.83a32.73,32.73,0,0,0-1.62-4.26c-.9-2.18-1.59-4.46-2.27-6.71-.64-2.08-1.27-4.17-1.91-6.25a12.89,12.89,0,0,1-.46-1.93,7.24,7.24,0,0,0,.46,3.14c.64,2.09,1.27,4.18,1.91,6.26.68,2.26,1.37,4.52,2.27,6.7a32.86,32.86,0,0,1,1.62,4.27c.51,2,.53,4.11,1.62,5.83a8.17,8.17,0,0,0,2.91,2.57c4,2.29,8.86,2.77,13.45,2.22A65.59,65.59,0,0,0,211.64,133a12.65,12.65,0,0,0,2.77-1.21c3-2,3.69-6,4.25-9.59a54.47,54.47,0,0,1,3-11.69c.88-2.22,2-4.48,1.83-6.87C223.45,103.62,223.44,103.6,223.44,103.57Z"/><path class="cls-13" d="M174.9,102v0a5.66,5.66,0,0,0-.18-2.13,10.35,10.35,0,0,1-.16-1.35,11,11,0,0,0,.16,2.56C174.78,101.36,174.86,101.68,174.9,102Z"/><path class="cls-13" d="M176.14,92.08a11.85,11.85,0,0,1,1.06-1.49c-.74.71-2.11.08-2.4-.9a2.26,2.26,0,0,0,0,1.21A1.75,1.75,0,0,0,176.14,92.08Z"/></g><path class="cls-7" d="M277.43,196.13a17.57,17.57,0,0,1,0,8.72C276.15,208.91,277.43,196.13,277.43,196.13Z"/><path class="cls-7" d="M282.91,200.89s.54,5.92-.68,7S282.91,200.89,282.91,200.89Z"/><line class="cls-14" x1="80.7" y1="139.03" x2="121.9" y2="138.63"/><line class="cls-14" x1="80.7" y1="144.09" x2="121.9" y2="143.69"/><line class="cls-14" x1="80.7" y1="149.15" x2="121.9" y2="148.75"/></g></g></svg>