<svg xmlns="http://www.w3.org/2000/svg" width="88.348" height="83.622" viewBox="0 0 88.348 83.622">
  <g id="Grupo_2" data-name="Grupo 2" transform="translate(-712.021 166.623)">
    <path id="Trazado_22" data-name="Trazado 22" d="M55.889,60.083h.265c2.92,0,9.291,3.982,11.15,11.548,1.195,4.911,1.46,11.548-.531,15.264C68.5,89.55,73.41,92.47,78.321,93.93a14.6,14.6,0,0,0,4.115.531c4.911,0,8.229-2.389,8.893-3.451a34.17,34.17,0,0,0,1.726-6.371A55.334,55.334,0,0,0,93.586,71.5C91.727,52.119,78.454,40.7,66.242,39.509a11.42,11.42,0,0,0-2.124-.133c-10.619,0-22.3,8.495-25.087,27.476a58.3,58.3,0,0,1,9.955-5.044A30.192,30.192,0,0,1,55.889,60.083Z" transform="translate(690.3 -206)" fill="#999"/>
    <path id="Trazado_23" data-name="Trazado 23" d="M46.863,108.531c-1.593-2.389-1.46-10.088,4.248-15.663C54.695,89.417,60.4,85.833,64.65,85.7c1.46-2.787,1.593-8.495.265-13.539-1.725-6.9-7.433-9.822-8.893-9.822a22.166,22.166,0,0,0-6.371,1.726A49.137,49.137,0,0,0,37.97,70.3c-15.8,11.282-19.114,28.538-14.07,39.687C27.484,118.088,35.979,123,46.067,123a41.412,41.412,0,0,0,15.264-3.186,58.859,58.859,0,0,1-9.291-6.106A32.863,32.863,0,0,1,46.863,108.531Z" transform="translate(690.3 -206)" fill="#999"/>
    <path id="Trazado_24" data-name="Trazado 24" d="M109.779,94.859c-.929-5.442-3.982-13.273-13.8-20.972a64.4,64.4,0,0,1-.664,11.15,30.5,30.5,0,0,1-1.991,7.035V92.2C92.258,94.2,87.878,96.983,82.3,96.983a19.742,19.742,0,0,1-4.778-.664c-4.911-1.327-10.751-4.513-12.875-8.1-3.186.133-8.1,2.92-11.813,6.5-5.044,4.911-4.778,11.283-3.982,12.609a31.488,31.488,0,0,0,4.646,4.779,55.884,55.884,0,0,0,11.15,7.034A40.972,40.972,0,0,0,81.507,123c10.088,0,19.246-4.381,24.556-11.548A22.7,22.7,0,0,0,109.779,94.859Z" transform="translate(690.3 -206)" fill="#999"/>
  </g>
</svg>
