<svg xmlns="http://www.w3.org/2000/svg" width="448.479" height="98.765" viewBox="0 0 448.479 98.765">
  <g id="Grupo_1" data-name="Grupo 1" transform="translate(-21.721 -39.377)">
    <path id="Trazado_2" data-name="Trazado 2" d="M149.4,97.1a3.566,3.566,0,0,1,.8,2.3,2.845,2.845,0,0,1-1.1,2.3,4.1,4.1,0,0,1-2.8.9h-1.2a10.643,10.643,0,0,1-5.8-1.7,11.142,11.142,0,0,1-4.1-4.5,13.841,13.841,0,0,1-1.5-6.5V73.8h-3a3.113,3.113,0,0,1-2.2-.8,2.438,2.438,0,0,1-.8-2,2.865,2.865,0,0,1,.8-2.1,3.113,3.113,0,0,1,2.2-.8h3V58.7a3.013,3.013,0,0,1,.9-2.3,3.168,3.168,0,0,1,2.3-.9,3.013,3.013,0,0,1,2.3.9,3.168,3.168,0,0,1,.9,2.3v9.4h5.5a3.113,3.113,0,0,1,2.2.8,2.52,2.52,0,0,1,.8,2.1,2.973,2.973,0,0,1-.8,2,3.3,3.3,0,0,1-2.2.8h-5.5V90a7.224,7.224,0,0,0,1.4,4.4,4.36,4.36,0,0,0,3.5,1.8h2.2A2.656,2.656,0,0,1,149.4,97.1Z" fill="#fff"/>
    <path id="Trazado_3" data-name="Trazado 3" d="M183.7,69.1a18.4,18.4,0,0,1,6.5,6.5,18.045,18.045,0,0,1,2.4,9.2V99.3a3.3,3.3,0,1,1-6.6,0V97a16.732,16.732,0,0,1-5.5,4.4,15.012,15.012,0,0,1-7,1.6,16.4,16.4,0,0,1-8.5-2.3,17.127,17.127,0,0,1-6-6.5,18.954,18.954,0,0,1-2.2-9.2,18.741,18.741,0,0,1,2.3-9.2,16.915,16.915,0,0,1,6.5-6.5,18.044,18.044,0,0,1,9.2-2.4A17.542,17.542,0,0,1,183.7,69.1Zm-3.2,26.4a10.875,10.875,0,0,0,4.1-4.4,12.643,12.643,0,0,0,1.5-6.2,13.317,13.317,0,0,0-1.5-6.3,11.6,11.6,0,0,0-4.1-4.4,11.678,11.678,0,0,0-11.8,0,11.116,11.116,0,0,0-4.2,4.4,13.317,13.317,0,0,0-1.5,6.3,12.643,12.643,0,0,0,1.5,6.2,11.812,11.812,0,0,0,4.2,4.4,10.9,10.9,0,0,0,5.9,1.6A11.139,11.139,0,0,0,180.5,95.5Z" fill="#fff"/>
    <path id="Trazado_4" data-name="Trazado 4" d="M205.8,101.2a9.969,9.969,0,0,1-3.5-4.3,15.24,15.24,0,0,1-1.2-6.2V55a3.013,3.013,0,0,1,.9-2.3,3.168,3.168,0,0,1,2.3-.9,3.013,3.013,0,0,1,2.3.9,3.168,3.168,0,0,1,.9,2.3V90.6a8.158,8.158,0,0,0,.9,4,2.806,2.806,0,0,0,2.3,1.6h1.6a2.583,2.583,0,0,1,2.1.9,3.566,3.566,0,0,1,.8,2.3,2.676,2.676,0,0,1-1.2,2.3,5.274,5.274,0,0,1-3.2.9h-.1A7.987,7.987,0,0,1,205.8,101.2Z" fill="#fff"/>
    <path id="Trazado_5" data-name="Trazado 5" d="M251.2,86.4a3.3,3.3,0,0,1-2.2.8H224.2a12.187,12.187,0,0,0,4.1,7.4,12.722,12.722,0,0,0,8.4,2.8,12.19,12.19,0,0,0,4.1-.7,12.721,12.721,0,0,0,3.5-1.8,3.232,3.232,0,0,1,2.2-.7,2.724,2.724,0,0,1,2,.7,2.911,2.911,0,0,1,1.2,2.2,2.459,2.459,0,0,1-1,2,19.019,19.019,0,0,1-5.5,2.9,20.9,20.9,0,0,1-6.3,1.1,20.034,20.034,0,0,1-9.6-2.3,16.921,16.921,0,0,1-6.6-6.4,17.894,17.894,0,0,1-2.4-9.3,19.467,19.467,0,0,1,2.2-9.4,16.415,16.415,0,0,1,6.3-6.5,18.357,18.357,0,0,1,9.1-2.3,16.557,16.557,0,0,1,8.7,2.2,14.658,14.658,0,0,1,5.6,6.2,20.624,20.624,0,0,1,2,9.1A5.381,5.381,0,0,1,251.2,86.4ZM228.1,75a11.416,11.416,0,0,0-3.7,7H246a11.813,11.813,0,0,0-3.3-7,9.757,9.757,0,0,0-7-2.6A10.65,10.65,0,0,0,228.1,75Z" fill="#fff"/>
    <path id="Trazado_6" data-name="Trazado 6" d="M286.3,68.7a13.4,13.4,0,0,1,5.6,5.7,19.287,19.287,0,0,1,2,9v16a3.1,3.1,0,0,1-3.3,3.3,3.406,3.406,0,0,1-2.4-.9,3.244,3.244,0,0,1-.9-2.4v-16c0-3.5-.9-6.2-2.8-8a10.457,10.457,0,0,0-7.5-2.7,11.814,11.814,0,0,0-5,1.1,8.119,8.119,0,0,0-4.8,7.2V99.4a3.1,3.1,0,0,1-3.3,3.3,3.407,3.407,0,0,1-2.4-.9,3.244,3.244,0,0,1-.9-2.4V70.3a3.3,3.3,0,1,1,6.6,0V71a13.034,13.034,0,0,1,5-3.2,15.718,15.718,0,0,1,6.1-1.1A16.651,16.651,0,0,1,286.3,68.7Z" fill="#fff"/>
    <path id="Trazado_7" data-name="Trazado 7" d="M322.2,97.1a3.566,3.566,0,0,1,.8,2.3,2.845,2.845,0,0,1-1.1,2.3,4.1,4.1,0,0,1-2.8.9h-1.2a10.642,10.642,0,0,1-5.8-1.7,11.142,11.142,0,0,1-4.1-4.5,13.841,13.841,0,0,1-1.5-6.5V73.8h-3a3.113,3.113,0,0,1-2.2-.8,2.438,2.438,0,0,1-.8-2,2.865,2.865,0,0,1,.8-2.1,3.3,3.3,0,0,1,2.2-.8h3V58.7a3.013,3.013,0,0,1,.9-2.3,3.168,3.168,0,0,1,2.3-.9,3.013,3.013,0,0,1,2.3.9,3.168,3.168,0,0,1,.9,2.3v9.4h5.5a3.113,3.113,0,0,1,2.2.8,2.865,2.865,0,0,1,.8,2.1,2.973,2.973,0,0,1-.8,2,3.3,3.3,0,0,1-2.2.8H313V90a7.224,7.224,0,0,0,1.4,4.4,4.36,4.36,0,0,0,3.5,1.8h2.2A2.878,2.878,0,0,1,322.2,97.1Z" fill="#fff"/>
    <path id="Trazado_8" data-name="Trazado 8" d="M362.9,67.9a3.244,3.244,0,0,1,.9,2.4V99.4a3.406,3.406,0,0,1-.9,2.4,3.244,3.244,0,0,1-2.4.9,3.406,3.406,0,0,1-2.4-.9,3.244,3.244,0,0,1-.9-2.4v-.7a13.034,13.034,0,0,1-5,3.2,15.719,15.719,0,0,1-6.1,1.1,16.758,16.758,0,0,1-8.1-2,13.4,13.4,0,0,1-5.6-5.7,19.287,19.287,0,0,1-2-9v-16a3.407,3.407,0,0,1,.9-2.4,3.244,3.244,0,0,1,2.4-.9,3.407,3.407,0,0,1,2.4.9,3.244,3.244,0,0,1,.9,2.4v16c0,3.5.9,6.2,2.8,8a10.457,10.457,0,0,0,7.5,2.7,11.814,11.814,0,0,0,5-1.1,8.119,8.119,0,0,0,4.8-7.2V70.3a3.1,3.1,0,0,1,3.3-3.3A3.328,3.328,0,0,1,362.9,67.9Z" fill="#fff"/>
    <path id="Trazado_9" data-name="Trazado 9" d="M407.4,67.9a3.244,3.244,0,0,1,.9,2.4V99.4a3.406,3.406,0,0,1-.9,2.4,3.3,3.3,0,0,1-5.7-2.4v-.7a13.034,13.034,0,0,1-5,3.2,15.719,15.719,0,0,1-6.1,1.1,16.758,16.758,0,0,1-8.1-2,13.4,13.4,0,0,1-5.6-5.7,19.287,19.287,0,0,1-2-9v-16a3.407,3.407,0,0,1,.9-2.4,3.244,3.244,0,0,1,2.4-.9,3.407,3.407,0,0,1,2.4.9,3.244,3.244,0,0,1,.9,2.4v16c0,3.5.9,6.2,2.8,8a10.457,10.457,0,0,0,7.5,2.7,11.814,11.814,0,0,0,5-1.1,8.119,8.119,0,0,0,4.8-7.2V70.3a3.1,3.1,0,0,1,3.3-3.3A3.328,3.328,0,0,1,407.4,67.9Z" fill="#fff"/>
    <path id="Trazado_10" data-name="Trazado 10" d="M466.7,70.4c2.3,2.5,3.5,5.9,3.5,10.4V99.4a3.3,3.3,0,1,1-6.6,0V80.8c0-2.7-.7-4.7-2-6a6.929,6.929,0,0,0-5.3-2.1,7.537,7.537,0,0,0-5.6,2.3,8.4,8.4,0,0,0-2.2,6V99.4a3.3,3.3,0,1,1-6.6,0V80.8c0-2.7-.7-4.7-2-6a6.929,6.929,0,0,0-5.3-2.1A7.381,7.381,0,0,0,429,75a8.4,8.4,0,0,0-2.2,6V99.4a3.3,3.3,0,1,1-6.6,0v-29a3.1,3.1,0,0,1,3.3-3.3,3.012,3.012,0,0,1,2.3.9,3.733,3.733,0,0,1,1,2.3,12.024,12.024,0,0,1,4-2.6,14.4,14.4,0,0,1,5.1-.9,13.2,13.2,0,0,1,6,1.3,11.294,11.294,0,0,1,4.3,3.8,13.231,13.231,0,0,1,4.9-3.8,15.459,15.459,0,0,1,6.5-1.4A11.839,11.839,0,0,1,466.7,70.4Z" fill="#fff"/>
    <path id="Trazado_11" data-name="Trazado 11" d="M330.3,124.3a4.363,4.363,0,0,1,1.6,1.7,5.1,5.1,0,0,1,0,4.8,4.621,4.621,0,0,1-1.7,1.7,5.1,5.1,0,0,1-4.8,0,4.621,4.621,0,0,1-1.7-1.7,4.751,4.751,0,0,1-.6-2.4v-7.7a.845.845,0,0,1,.2-.6.735.735,0,0,1,.6-.2.845.845,0,0,1,.6.2.735.735,0,0,1,.2.6v4.6a3.6,3.6,0,0,1,1.4-1.1,3.922,3.922,0,0,1,1.8-.4A3.589,3.589,0,0,1,330.3,124.3Zm-1,6.8a3.838,3.838,0,0,0,1.1-1.1,3.4,3.4,0,0,0,0-3.2,2.345,2.345,0,0,0-1.1-1.1,2.822,2.822,0,0,0-1.5-.4,2.6,2.6,0,0,0-1.5.4,3.838,3.838,0,0,0-1.1,1.1,3.4,3.4,0,0,0,0,3.2,2.345,2.345,0,0,0,1.1,1.1,2.822,2.822,0,0,0,1.5.4A2.6,2.6,0,0,0,329.3,131.1Z" fill="#fff"/>
    <path id="Trazado_12" data-name="Trazado 12" d="M342.1,124.5a.756.756,0,0,1-.1.4l-5.2,11.7a.64.64,0,0,1-.7.5.928.928,0,0,1-.9-.8.6.6,0,0,1,.1-.4l1.7-3.8-3.8-7.2c-.1-.1-.1-.2-.1-.4a.6.6,0,0,1,.1-.4,1.38,1.38,0,0,1,.4-.3c.1,0,.2-.1.3-.1a.752.752,0,0,1,.7.5l3.1,6.2,2.7-6.2a.752.752,0,0,1,.7-.5.6.6,0,0,1,.4.1C342,124,342.1,124.2,342.1,124.5Z" fill="#fff"/>
    <path id="Trazado_13" data-name="Trazado 13" d="M350.4,132.5a4.621,4.621,0,0,1-1.7-1.7,5.1,5.1,0,0,1,0-4.8,4.363,4.363,0,0,1,1.6-1.7,4.751,4.751,0,0,1,2.4-.6,4.272,4.272,0,0,1,3.3,1.5.758.758,0,0,1,.2.4.622.622,0,0,1-.4.6c-.1.1-.2.1-.4.1a.908.908,0,0,1-.7-.3,5.5,5.5,0,0,0-.9-.7,3.6,3.6,0,0,0-1.1-.2,2.583,2.583,0,0,0-2.1.9,3.566,3.566,0,0,0-.8,2.3,2.726,2.726,0,0,0,.4,1.6,2.345,2.345,0,0,0,1.1,1.1,2.934,2.934,0,0,0,1.6.4,2.883,2.883,0,0,0,1.9-.6.735.735,0,0,1,.6-.2.519.519,0,0,1,.4.2.864.864,0,0,1,.3.6c0,.2-.1.3-.2.5a4.08,4.08,0,0,1-3.1,1.1A4.181,4.181,0,0,1,350.4,132.5Z" fill="#fff"/>
    <path id="Trazado_14" data-name="Trazado 14" d="M360.6,132.5a4.621,4.621,0,0,1-1.7-1.7,5.1,5.1,0,0,1,0-4.8,3.983,3.983,0,0,1,1.7-1.7,5.1,5.1,0,0,1,4.8,0,4.621,4.621,0,0,1,1.7,1.7,5.1,5.1,0,0,1,0,4.8,3.983,3.983,0,0,1-1.7,1.7,5.1,5.1,0,0,1-4.8,0Zm4-1.4a2.905,2.905,0,0,0,1.1-1.1,2.934,2.934,0,0,0,.4-1.6,2.726,2.726,0,0,0-.4-1.6,2.346,2.346,0,0,0-1.1-1.1,3.4,3.4,0,0,0-3.2,0,3.838,3.838,0,0,0-1.1,1.1,2.934,2.934,0,0,0-.4,1.6,2.726,2.726,0,0,0,.4,1.6,2.346,2.346,0,0,0,1.1,1.1,2.934,2.934,0,0,0,1.6.4A2.276,2.276,0,0,0,364.6,131.1Z" fill="#fff"/>
    <path id="Trazado_15" data-name="Trazado 15" d="M377,124.2a3.607,3.607,0,0,1,1.5,1.5,4.338,4.338,0,0,1,.5,2.3v4.2a1.072,1.072,0,0,1-.2.6.735.735,0,0,1-.6.2,1.072,1.072,0,0,1-.6-.2.735.735,0,0,1-.2-.6V128a2.817,2.817,0,0,0-.7-2.1,2.578,2.578,0,0,0-2-.7,2.768,2.768,0,0,0-1.3.3,2.361,2.361,0,0,0-.9.8,2.016,2.016,0,0,0-.3,1.1v4.8a1.072,1.072,0,0,1-.2.6.735.735,0,0,1-.6.2,1.072,1.072,0,0,1-.6-.2.735.735,0,0,1-.2-.6v-7.6a.845.845,0,0,1,.2-.6.735.735,0,0,1,.6-.2.845.845,0,0,1,.6.2.735.735,0,0,1,.2.6v.2a3.528,3.528,0,0,1,1.3-.8,4.146,4.146,0,0,1,1.6-.3A2.746,2.746,0,0,1,377,124.2Z" fill="#fff"/>
    <path id="Trazado_16" data-name="Trazado 16" d="M386.3,131.6a1.421,1.421,0,0,1,.2.6.713.713,0,0,1-.3.6.844.844,0,0,1-.7.2h-.3a2.41,2.41,0,0,1-1.5-.4,3.179,3.179,0,0,1-1.1-1.2,3.287,3.287,0,0,1-.4-1.7v-4.2h-.8a1.421,1.421,0,0,1-.6-.2.725.725,0,0,1,0-1,.845.845,0,0,1,.6-.2h.8v-2.4a1.072,1.072,0,0,1,.2-.6.735.735,0,0,1,.6-.2,1.072,1.072,0,0,1,.6.2.735.735,0,0,1,.2.6v2.4h1.4a1.421,1.421,0,0,1,.6.2.725.725,0,0,1,0,1,.845.845,0,0,1-.6.2h-1.4v4.2a1.366,1.366,0,0,0,.4,1.1,1.193,1.193,0,0,0,.9.5h.6A.6.6,0,0,1,386.3,131.6Z" fill="#fff"/>
    <path id="Trazado_17" data-name="Trazado 17" d="M388.9,121.9a1.217,1.217,0,1,1,.8.3A1.136,1.136,0,0,1,388.9,121.9Zm.2,10.9a.735.735,0,0,1-.2-.6v-7.5a.845.845,0,0,1,.2-.6.735.735,0,0,1,.6-.2.845.845,0,0,1,.6.2.735.735,0,0,1,.2.6v7.5a1.072,1.072,0,0,1-.2.6.735.735,0,0,1-.6.2A.845.845,0,0,1,389.1,132.8Z" fill="#fff"/>
    <path id="Trazado_18" data-name="Trazado 18" d="M400.5,124.2a3.607,3.607,0,0,1,1.5,1.5,4.338,4.338,0,0,1,.5,2.3v4.2a1.072,1.072,0,0,1-.2.6.735.735,0,0,1-.6.2,1.072,1.072,0,0,1-.6-.2.735.735,0,0,1-.2-.6V128a2.817,2.817,0,0,0-.7-2.1,2.578,2.578,0,0,0-2-.7,2.768,2.768,0,0,0-1.3.3,2.361,2.361,0,0,0-.9.8,2.016,2.016,0,0,0-.3,1.1v4.8a1.072,1.072,0,0,1-.2.6.735.735,0,0,1-.6.2,1.072,1.072,0,0,1-.6-.2.735.735,0,0,1-.2-.6v-7.6a.845.845,0,0,1,.2-.6.735.735,0,0,1,.6-.2.845.845,0,0,1,.6.2.735.735,0,0,1,.2.6v.2a3.528,3.528,0,0,1,1.3-.8,4.146,4.146,0,0,1,1.6-.3A3.013,3.013,0,0,1,400.5,124.2Z" fill="#fff"/>
    <path id="Trazado_19" data-name="Trazado 19" d="M413.6,124a.735.735,0,0,1,.2.6v7.6a1.072,1.072,0,0,1-.2.6.735.735,0,0,1-.6.2,1.072,1.072,0,0,1-.6-.2.735.735,0,0,1-.2-.6V132a3.529,3.529,0,0,1-1.3.8,4.146,4.146,0,0,1-1.6.3,4.648,4.648,0,0,1-2.1-.5,3.607,3.607,0,0,1-1.5-1.5,4.337,4.337,0,0,1-.5-2.3v-4.2a1.072,1.072,0,0,1,.2-.6.735.735,0,0,1,.6-.2,1.072,1.072,0,0,1,.6.2.735.735,0,0,1,.2.6v4.2a2.817,2.817,0,0,0,.7,2.1,2.578,2.578,0,0,0,2,.7,2.768,2.768,0,0,0,1.3-.3,2.361,2.361,0,0,0,.9-.8,2.016,2.016,0,0,0,.3-1.1v-4.8a.845.845,0,0,1,.2-.6,1.072,1.072,0,0,1,.6-.2A.725.725,0,0,1,413.6,124Z" fill="#fff"/>
    <path id="Trazado_20" data-name="Trazado 20" d="M425.2,124a.735.735,0,0,1,.2.6v7.6a1.072,1.072,0,0,1-.2.6.735.735,0,0,1-.6.2,1.072,1.072,0,0,1-.6-.2.735.735,0,0,1-.2-.6V132a3.528,3.528,0,0,1-1.3.8,4.146,4.146,0,0,1-1.6.3,4.649,4.649,0,0,1-2.1-.5,3.607,3.607,0,0,1-1.5-1.5,4.338,4.338,0,0,1-.5-2.3v-4.2a1.072,1.072,0,0,1,.2-.6.735.735,0,0,1,.6-.2,1.072,1.072,0,0,1,.6.2.735.735,0,0,1,.2.6v4.2a2.817,2.817,0,0,0,.7,2.1,2.578,2.578,0,0,0,2,.7,2.768,2.768,0,0,0,1.3-.3,2.361,2.361,0,0,0,.9-.8,2.016,2.016,0,0,0,.3-1.1v-4.8a.845.845,0,0,1,.2-.6.735.735,0,0,1,.6-.2A.725.725,0,0,1,425.2,124Z" fill="#fff"/>
    <path id="Trazado_21" data-name="Trazado 21" d="M440.6,124.6a3.667,3.667,0,0,1,.9,2.7v4.8a1.072,1.072,0,0,1-.2.6.735.735,0,0,1-.6.2,1.072,1.072,0,0,1-.6-.2.735.735,0,0,1-.2-.6v-4.8a2.544,2.544,0,0,0-.5-1.6,1.624,1.624,0,0,0-1.4-.5,1.678,1.678,0,0,0-1.4.6,2.111,2.111,0,0,0-.6,1.6v4.8a1.072,1.072,0,0,1-.2.6.735.735,0,0,1-.6.2,1.072,1.072,0,0,1-.6-.2.735.735,0,0,1-.2-.6v-4.8a2.544,2.544,0,0,0-.5-1.6,1.624,1.624,0,0,0-1.4-.5,2.035,2.035,0,0,0-1.5.6,2.111,2.111,0,0,0-.6,1.6v4.8a1.072,1.072,0,0,1-.2.6.735.735,0,0,1-.6.2,1.072,1.072,0,0,1-.6-.2.735.735,0,0,1-.2-.6v-7.5a.845.845,0,0,1,.2-.6.735.735,0,0,1,.6-.2,1.072,1.072,0,0,1,.6.2c.2.2.2.4.3.6a2.979,2.979,0,0,1,1.1-.7,2.745,2.745,0,0,1,1.3-.2,4.146,4.146,0,0,1,1.6.3,2.661,2.661,0,0,1,1.1,1,4.485,4.485,0,0,1,1.3-1,4.711,4.711,0,0,1,1.7-.4A2.2,2.2,0,0,1,440.6,124.6Z" fill="#fff"/>
    <path id="Trazado_22" data-name="Trazado 22" d="M55.889,60.083h.265c2.92,0,9.291,3.982,11.15,11.548,1.195,4.911,1.46,11.548-.531,15.264C68.5,89.55,73.41,92.47,78.321,93.93a14.6,14.6,0,0,0,4.115.531c4.911,0,8.229-2.389,8.893-3.451a34.17,34.17,0,0,0,1.726-6.371A55.334,55.334,0,0,0,93.586,71.5C91.727,52.119,78.454,40.7,66.242,39.509a11.42,11.42,0,0,0-2.124-.133c-10.619,0-22.3,8.495-25.087,27.476a58.3,58.3,0,0,1,9.955-5.044A30.192,30.192,0,0,1,55.889,60.083Z" fill="#fff"/>
    <path id="Trazado_23" data-name="Trazado 23" d="M46.863,108.531c-1.593-2.389-1.46-10.088,4.248-15.663C54.695,89.417,60.4,85.833,64.65,85.7c1.46-2.787,1.593-8.495.265-13.539-1.725-6.9-7.433-9.822-8.893-9.822a22.166,22.166,0,0,0-6.371,1.726A49.137,49.137,0,0,0,37.97,70.3c-15.8,11.282-19.114,28.538-14.07,39.687C27.484,118.088,35.979,123,46.067,123a41.412,41.412,0,0,0,15.264-3.186,58.859,58.859,0,0,1-9.291-6.106A32.863,32.863,0,0,1,46.863,108.531Z" fill="#fff"/>
    <path id="Trazado_24" data-name="Trazado 24" d="M109.779,94.859c-.929-5.442-3.982-13.273-13.8-20.972a64.4,64.4,0,0,1-.664,11.15,30.5,30.5,0,0,1-1.991,7.035V92.2C92.258,94.2,87.878,96.983,82.3,96.983a19.742,19.742,0,0,1-4.778-.664c-4.911-1.327-10.751-4.513-12.875-8.1-3.186.133-8.1,2.92-11.813,6.5-5.044,4.911-4.778,11.283-3.982,12.609a31.488,31.488,0,0,0,4.646,4.779,55.884,55.884,0,0,0,11.15,7.034A40.972,40.972,0,0,0,81.507,123c10.088,0,19.246-4.381,24.556-11.548A22.7,22.7,0,0,0,109.779,94.859Z" fill="#fff"/>
    <path id="Trazado_25" data-name="Trazado 25" d="M468.6,130.4a2.378,2.378,0,0,1-2.2,1.6,7.916,7.916,0,0,1-2.1-.3.9.9,0,0,0-1,.7,6.4,6.4,0,0,1-6.8,5.5.265.265,0,0,1-.3-.3c0-.1.1-.3.2-.3a6.631,6.631,0,0,0,4.5-5.3.836.836,0,0,0-.6-.9,1.037,1.037,0,0,0-.8.6,6.106,6.106,0,0,1-4.3,4c-1.8.6-2.8.1-4.1,2.3-.1.1-.3.2-.4.1a.4.4,0,0,1-.2-.4c.3-1.4.6-2.4,3.1-4a4.2,4.2,0,0,0,2.1-3.5.945.945,0,0,0-1-1.2c-1.7.1-2.4,1.4-2.8,2.9-.3,1.5-1.1,1.9-2.2,2.4-.1,0-.1.1-.2.1a.265.265,0,0,1-.3-.3c0-.1,0-.2.1-.2,1.2-1.2,1.2-1.7,1.3-3.8.1-1.5,1.3-3.5,2.6-3.9.5-.1.6-.7.4-1.2a12.81,12.81,0,0,1-1.1-2,2.958,2.958,0,0,1-.2-1,2.138,2.138,0,0,1,.9-1.8,9.929,9.929,0,0,1,6.3-2.3,9.624,9.624,0,0,1,9.7,9.6C469,128.5,468.9,129.4,468.6,130.4Z" fill="#fff"/>
  </g>
</svg>
